<svg width="48" height="49" viewBox="0 0 48 49" fill="none" xmlns="http://www.w3.org/2000/svg">
<circle cx="24" cy="24.2681" r="23.5" stroke="#A56949"/>
<path d="M24 18.7681C22.9122 18.7681 21.8488 19.0906 20.9444 19.695C20.0399 20.2993 19.3349 21.1583 18.9187 22.1633C18.5024 23.1683 18.3935 24.2742 18.6057 25.3411C18.8179 26.408 19.3417 27.388 20.1109 28.1572C20.8801 28.9263 21.8601 29.4502 22.927 29.6624C23.9939 29.8746 25.0998 29.7657 26.1048 29.3494C27.1098 28.9331 27.9687 28.2282 28.5731 27.3237C29.1774 26.4192 29.5 25.3559 29.5 24.2681C29.4983 22.8099 28.9184 21.4119 27.8873 20.3808C26.8562 19.3497 25.4582 18.7697 24 18.7681ZM24 28.7681C23.11 28.7681 22.24 28.5041 21.4999 28.0097C20.7599 27.5152 20.1831 26.8124 19.8425 25.9901C19.5019 25.1679 19.4128 24.2631 19.5865 23.3902C19.7601 22.5172 20.1887 21.7154 20.818 21.0861C21.4474 20.4567 22.2492 20.0282 23.1221 19.8545C23.995 19.6809 24.8998 19.77 25.7221 20.1106C26.5443 20.4512 27.2471 21.028 27.7416 21.768C28.2361 22.508 28.5 23.3781 28.5 24.2681C28.5 25.4615 28.0259 26.6061 27.182 27.45C26.3381 28.294 25.1935 28.7681 24 28.7681ZM30 11.7681H18C16.2767 11.7701 14.6246 12.4555 13.406 13.6741C12.1874 14.8926 11.502 16.5448 11.5 18.2681V30.2681C11.502 31.9914 12.1874 33.6435 13.406 34.8621C14.6246 36.0806 16.2767 36.7661 18 36.7681H30C31.7233 36.7661 33.3754 36.0806 34.594 34.8621C35.8126 33.6435 36.498 31.9914 36.5 30.2681V18.2681C36.498 16.5448 35.8126 14.8926 34.594 13.6741C33.3754 12.4555 31.7233 11.7701 30 11.7681ZM35.5 30.2681C35.4983 31.7262 34.9184 33.1242 33.8873 34.1553C32.8562 35.1864 31.4582 35.7664 30 35.7681H18C16.5418 35.7664 15.1438 35.1864 14.1127 34.1553C13.0816 33.1242 12.5017 31.7262 12.5 30.2681V18.2681C12.5017 16.8099 13.0816 15.4119 14.1127 14.3808C15.1438 13.3497 16.5418 12.7697 18 12.7681H30C31.4582 12.7697 32.8562 13.3497 33.8873 14.3808C34.9184 15.4119 35.4983 16.8099 35.5 18.2681V30.2681ZM31.5 17.7681C31.5 17.9658 31.4414 18.1592 31.3315 18.3236C31.2216 18.4881 31.0654 18.6163 30.8827 18.6919C30.7 18.7676 30.4989 18.7874 30.3049 18.7489C30.1109 18.7103 29.9327 18.615 29.7929 18.4752C29.653 18.3353 29.5578 18.1571 29.5192 17.9632C29.4806 17.7692 29.5004 17.5681 29.5761 17.3854C29.6518 17.2027 29.78 17.0465 29.9444 16.9366C30.1089 16.8267 30.3022 16.7681 30.5 16.7681C30.7652 16.7681 31.0196 16.8734 31.2071 17.061C31.3946 17.2485 31.5 17.5029 31.5 17.7681Z" fill="#A56949"/>
</svg>
