<svg width="48" height="49" viewBox="0 0 48 49" fill="none" xmlns="http://www.w3.org/2000/svg">
<circle cx="24" cy="24.2681" r="23.5" stroke="#A56949"/>
<path d="M35.6445 15.23H11.6445C11.5119 15.23 11.3847 15.2827 11.291 15.3764C11.1972 15.4702 11.1445 15.5974 11.1445 15.73V32.73C11.1445 33.1278 11.3026 33.5093 11.5839 33.7906C11.8652 34.0719 12.2467 34.23 12.6445 34.23H34.6445C35.0424 34.23 35.4239 34.0719 35.7052 33.7906C35.9865 33.5093 36.1445 33.1278 36.1445 32.73V15.73C36.1445 15.5974 36.0919 15.4702 35.9981 15.3764C35.9043 15.2827 35.7771 15.23 35.6445 15.23ZM34.3595 16.23L23.6445 26.0512L12.9295 16.23H34.3595ZM34.6445 33.23H12.6445C12.5119 33.23 12.3847 33.1773 12.291 33.0835C12.1972 32.9898 12.1445 32.8626 12.1445 32.73V16.8662L23.307 27.105C23.3992 27.1893 23.5196 27.2361 23.6445 27.2361C23.7695 27.2361 23.8899 27.1893 23.982 27.105L35.1445 16.8662V32.73C35.1445 32.8626 35.0919 32.9898 34.9981 33.0835C34.9043 33.1773 34.7771 33.23 34.6445 33.23Z" fill="#A56949"/>
</svg>
