<svg width="173" height="46" viewBox="0 0 173 46" fill="none" xmlns="http://www.w3.org/2000/svg">
<path d="M0 4.25457H14.9994V45.3926H19.3744V4.25457H34.3088V0.301758H0V4.25457Z" fill="white"/>
<path d="M77.4046 28.8437C77.4046 37.1947 72.7884 41.9872 64.7436 41.9872C56.6987 41.9872 52.2031 37.1993 52.2031 28.8437V0.301758H47.8884V28.904C47.8884 39.7696 54.0311 46.0004 64.7436 46.0004C75.4561 46.0004 81.7796 39.2917 81.7796 28.904V0.301758H77.4046V28.8437Z" fill="white"/>
<path d="M125.878 13.5426C125.878 5.18691 119.28 0 108.661 0C105.051 0 102.096 0.34332 99.1451 0.728394L98.7322 0.784068V45.397H103.107V27.4841C104.541 27.5908 106.573 27.6883 107.997 27.6883C109.421 27.6883 110.581 27.6233 111.625 27.4841L123.507 45.1883L123.651 45.397H128.893L115.921 26.5145C122.171 24.4499 125.882 19.6434 125.882 13.5472M121.322 13.7235C121.322 20.1631 116.534 23.8561 108.178 23.8561C106.508 23.8561 104.494 23.6983 103.107 23.5452V4.42604C105.093 4.10592 106.981 3.95745 109.022 3.95745C116.608 3.95745 121.322 7.70149 121.322 13.7235Z" fill="white"/>
<path d="M149.873 22.2185L172.096 0.301758H166.417L146.426 20.1772V0.301758H142.111V45.3926H146.426V24.2738L166.997 45.2534L167.136 45.3926H172.926L149.873 22.2185Z" fill="white"/>
</svg>
