<svg width="40" height="44" viewBox="0 0 40 44" fill="none" xmlns="http://www.w3.org/2000/svg">
<path d="M25.1779 12.9478V11.4278C25.1779 9.89753 24.6891 8.63593 23.7119 7.64328C22.7346 6.65062 21.4973 6.1543 20.0001 6.1543C18.3781 6.1543 17.1096 6.66086 16.1947 7.6743C15.2799 8.68773 14.8223 10.0421 14.8223 11.738V12.2033C14.8223 12.2861 14.8326 12.3584 14.8535 12.4204L14.8847 12.9478C13.346 11.8518 11.963 11.3037 10.7362 11.3037C9.77955 11.3037 8.8647 11.6241 7.99134 12.2653C7.15946 12.8649 6.54623 13.651 6.15104 14.6229C5.86002 15.3053 5.71436 15.9878 5.71436 16.6702C5.71436 18.7588 6.92053 20.3514 9.33257 21.4474L9.80044 21.6645C7.07649 22.9053 5.71436 24.5804 5.71436 26.6898C5.71436 28.1167 6.21342 29.3678 7.21155 30.4433C8.20968 31.5188 9.39495 32.0563 10.7674 32.0563C12.015 32.0563 13.2524 31.6118 14.4792 30.7225L14.8847 30.4123C14.8432 30.8258 14.8223 31.3221 14.8223 31.9012C14.8223 33.4523 15.311 34.7188 16.2883 35.7012C17.2655 36.6837 18.5029 37.1747 20.0001 37.1747C21.6429 37.1747 22.9165 36.6629 23.821 35.6392C24.7256 34.6155 25.1779 33.2764 25.1779 31.6221V30.4123C26.7165 31.5082 28.089 32.0563 29.2951 32.0563C30.6467 32.0563 31.8164 31.5135 32.8042 30.4278C33.792 29.3421 34.2858 28.096 34.2858 26.6898C34.2858 24.5804 33.0796 22.9776 30.6676 21.8816L30.1997 21.6645C32.9237 20.4237 34.2858 18.7588 34.2858 16.6702C34.2858 15.3261 33.797 14.0955 32.8198 12.9788C31.8426 11.8621 30.6623 11.3037 29.2795 11.3037C27.8968 11.3037 26.6751 11.738 25.6145 12.6065L25.1779 12.9478ZM22.5578 18.1902C24.9698 14.6951 27.2053 12.9478 29.264 12.9478C30.1164 12.9478 30.8912 13.3302 31.5877 14.0955C32.2842 14.8608 32.6326 15.7188 32.6326 16.6702C32.6326 19.2347 29.8463 20.7547 24.2733 21.2302V22.1298C27.0391 22.3572 29.1236 22.8535 30.5272 23.6188C31.9308 24.3841 32.6326 25.4077 32.6326 26.6898C32.6326 27.6204 32.2948 28.4735 31.6189 29.249C30.943 30.0245 30.1582 30.4123 29.264 30.4123C27.1638 30.4123 24.9283 28.6543 22.5578 25.1388L21.7468 25.6041C22.9321 28.0029 23.5247 30.0298 23.5247 31.6841C23.5247 34.2486 22.3497 35.5306 20.0001 35.5306C18.8772 35.5306 18.0038 35.1894 17.38 34.507C16.7771 33.7832 16.4754 32.8731 16.4754 31.7772C16.4754 30.1228 17.0681 28.0649 18.2533 25.6041L17.4424 25.1388C15.0718 28.6543 12.8363 30.4123 10.7362 30.4123C9.88373 30.4123 9.10893 30.0453 8.41242 29.311C7.71592 28.5768 7.36751 27.7032 7.36751 26.6898C7.36751 24.1254 10.1436 22.6054 15.6956 22.1298V21.2302C10.1436 20.7751 7.36751 19.2551 7.36751 16.6702C7.36751 15.7604 7.70032 14.9123 8.36563 14.1265C9.03095 13.3408 9.82134 12.9478 10.7362 12.9478C12.7948 12.9478 15.0303 14.6951 17.4424 18.1902L18.2533 17.7559C17.0681 15.3363 16.4754 13.2682 16.4754 11.5518C16.4754 10.4559 16.7771 9.54576 17.38 8.82205C18.0038 8.1396 18.8772 7.79838 20.0001 7.79838C22.3497 7.79838 23.5247 9.07022 23.5247 11.6139C23.5247 13.289 22.9321 15.3363 21.7468 17.7559L22.5578 18.1902Z" fill="white"/>
</svg>
