<svg width="48" height="49" viewBox="0 0 48 49" fill="none" xmlns="http://www.w3.org/2000/svg">
<circle cx="24" cy="24.2681" r="23.5" stroke="#A56949"/>
<path d="M35.371 28.7787L29.4685 26.1374C29.2396 26.0384 28.9897 25.998 28.7414 26.0198C28.493 26.0416 28.254 26.125 28.046 26.2624C28.0293 26.273 28.0134 26.2846 27.9985 26.2974L24.8985 28.9399C24.8295 28.982 24.7512 29.0064 24.6705 29.011C24.5898 29.0156 24.5093 29.0002 24.436 28.9662C22.406 27.9862 20.3047 25.9012 19.3247 23.8949C19.29 23.8222 19.2739 23.7419 19.2779 23.6615C19.2818 23.581 19.3056 23.5027 19.3472 23.4337L21.9972 20.2824C22.0097 20.2674 22.021 20.2512 22.0322 20.2349C22.1692 20.0272 22.2523 19.7886 22.2742 19.5407C22.296 19.2928 22.2558 19.0434 22.1572 18.8149L19.511 12.9224C19.3832 12.624 19.1621 12.375 18.8808 12.213C18.5995 12.0509 18.2732 11.9845 17.951 12.0237C16.3779 12.2311 14.9342 13.004 13.8894 14.1981C12.8446 15.3922 12.2702 16.9258 12.2735 18.5124C12.2735 28.1624 20.1235 36.0124 29.7735 36.0124C31.3601 36.0157 32.8937 35.4413 34.0878 34.3965C35.2819 33.3517 36.0548 31.9079 36.2622 30.3349C36.3011 30.0141 36.2354 29.6893 36.0748 29.4089C35.9142 29.1285 35.6673 28.9075 35.371 28.7787ZM35.2735 30.2099C35.0969 31.5421 34.4413 32.7644 33.429 33.6483C32.4168 34.5321 31.1173 35.0171 29.7735 35.0124C20.676 35.0124 13.2735 27.6099 13.2735 18.5124C13.2688 17.1686 13.7537 15.8691 14.6376 14.8568C15.5215 13.8446 16.7438 13.1889 18.076 13.0124C18.0959 13.0112 18.116 13.0112 18.136 13.0124C18.2346 13.0133 18.3308 13.0433 18.4124 13.0986C18.494 13.154 18.5575 13.2323 18.5947 13.3237L21.2335 19.2162C21.2642 19.2882 21.2777 19.3664 21.2727 19.4446C21.2677 19.5227 21.2444 19.5986 21.2047 19.6662L18.556 22.8162C18.5435 22.8324 18.531 22.8474 18.5197 22.8649C18.3786 23.0807 18.2955 23.3292 18.2784 23.5865C18.2613 23.8438 18.3108 24.1011 18.4222 24.3337C19.5085 26.5574 21.7485 28.7812 23.9972 29.8674C24.2313 29.978 24.4901 30.0262 24.7484 30.0071C25.0067 29.9881 25.2556 29.9025 25.471 29.7587L25.5172 29.7237L28.621 27.0837C28.6873 27.0431 28.7624 27.0189 28.84 27.013C28.9176 27.0072 28.9955 27.0198 29.0672 27.0499L34.9685 29.6949C35.068 29.7364 35.1516 29.8089 35.2065 29.9017C35.2615 29.9945 35.285 30.1027 35.2735 30.2099Z" fill="#A56949"/>
</svg>
