<svg width="26" height="26" viewBox="0 0 26 26" fill="none" xmlns="http://www.w3.org/2000/svg">
<path d="M13 7.08984C11.9122 7.08984 10.8488 7.41241 9.94436 8.01676C9.03989 8.62111 8.33495 9.48009 7.91866 10.4851C7.50238 11.4901 7.39346 12.5959 7.60568 13.6628C7.8179 14.7297 8.34172 15.7097 9.11091 16.4789C9.8801 17.2481 10.8601 17.7719 11.927 17.9842C12.9939 18.1964 14.0998 18.0875 15.1048 17.6712C16.1098 17.2549 16.9687 16.5499 17.5731 15.6455C18.1774 14.741 18.5 13.6776 18.5 12.5898C18.4983 11.1317 17.9184 9.73368 16.8873 8.70258C15.8562 7.67149 14.4582 7.0915 13 7.08984ZM13 17.0898C12.11 17.0898 11.24 16.8259 10.4999 16.3315C9.75991 15.837 9.18314 15.1342 8.84254 14.3119C8.50195 13.4897 8.41283 12.5849 8.58647 11.7119C8.7601 10.839 9.18868 10.0372 9.81802 9.40786C10.4474 8.77853 11.2492 8.34994 12.1221 8.17631C12.995 8.00268 13.8998 8.09179 14.7221 8.43239C15.5443 8.77298 16.2471 9.34976 16.7416 10.0898C17.2361 10.8298 17.5 11.6998 17.5 12.5898C17.5 13.7833 17.0259 14.9279 16.182 15.7718C15.3381 16.6157 14.1935 17.0898 13 17.0898ZM19 0.0898438H7C5.2767 0.0918287 3.62455 0.777286 2.406 1.99584C1.18744 3.2144 0.501985 4.86655 0.5 6.58984V18.5898C0.501985 20.3131 1.18744 21.9653 2.406 23.1838C3.62455 24.4024 5.2767 25.0879 7 25.0898H19C20.7233 25.0879 22.3754 24.4024 23.594 23.1838C24.8126 21.9653 25.498 20.3131 25.5 18.5898V6.58984C25.498 4.86655 24.8126 3.2144 23.594 1.99584C22.3754 0.777286 20.7233 0.0918287 19 0.0898438ZM24.5 18.5898C24.4983 20.048 23.9184 21.446 22.8873 22.4771C21.8562 23.5082 20.4582 24.0882 19 24.0898H7C5.54182 24.0882 4.14383 23.5082 3.11274 22.4771C2.08165 21.446 1.50165 20.048 1.5 18.5898V6.58984C1.50165 5.13166 2.08165 3.73368 3.11274 2.70258C4.14383 1.67149 5.54182 1.0915 7 1.08984H19C20.4582 1.0915 21.8562 1.67149 22.8873 2.70258C23.9184 3.73368 24.4983 5.13166 24.5 6.58984V18.5898ZM20.5 6.08984C20.5 6.28762 20.4414 6.48097 20.3315 6.64541C20.2216 6.80986 20.0654 6.93804 19.8827 7.01372C19.7 7.08941 19.4989 7.10921 19.3049 7.07063C19.1109 7.03204 18.9327 6.9368 18.7929 6.79695C18.653 6.6571 18.5578 6.47892 18.5192 6.28493C18.4806 6.09095 18.5004 5.88989 18.5761 5.70716C18.6518 5.52443 18.78 5.36826 18.9444 5.25837C19.1089 5.14849 19.3022 5.08984 19.5 5.08984C19.7652 5.08984 20.0196 5.1952 20.2071 5.38274C20.3946 5.57027 20.5 5.82463 20.5 6.08984Z" fill="white"/>
</svg>
