<svg width="32" height="32" viewBox="0 0 32 32" fill="none" xmlns="http://www.w3.org/2000/svg">
<mask id="mask0_977_367" style="mask-type:alpha" maskUnits="userSpaceOnUse" x="0" y="0" width="32" height="32">
<rect width="32" height="32" fill="#D9D9D9"/>
</mask>
<g mask="url(#mask0_977_367)">
<path d="M13.9385 15.9998L19.3695 21.4305C19.554 21.6152 19.6484 21.8473 19.6529 22.1268C19.6571 22.4062 19.5626 22.6425 19.3695 22.8358C19.1762 23.029 18.942 23.1255 18.6669 23.1255C18.3917 23.1255 18.1575 23.029 17.9642 22.8358L11.9719 16.8435C11.8472 16.7186 11.7592 16.587 11.7079 16.4485C11.6565 16.3101 11.6309 16.1605 11.6309 15.9998C11.6309 15.8392 11.6565 15.6896 11.7079 15.5512C11.7592 15.4127 11.8472 15.2811 11.9719 15.1562L17.9642 9.16384C18.1489 8.9794 18.381 8.88495 18.6605 8.88051C18.9399 8.87628 19.1762 8.97073 19.3695 9.16384C19.5626 9.35717 19.6592 9.5914 19.6592 9.86651C19.6592 10.1416 19.5626 10.3758 19.3695 10.5692L13.9385 15.9998Z" fill="white"/>
</g>
</svg>
