<svg width="18" height="16" viewBox="0 0 18 16" fill="none" xmlns="http://www.w3.org/2000/svg">
<path d="M17.6475 8.39739L10.8975 15.1474C10.7909 15.2467 10.6498 15.3008 10.5041 15.2983C10.3584 15.2957 10.2193 15.2367 10.1163 15.1336C10.0132 15.0305 9.95419 14.8915 9.95162 14.7458C9.94905 14.6001 10.0031 14.459 10.1025 14.3524L15.8916 8.56238H0.75C0.600816 8.56238 0.457742 8.50312 0.352252 8.39763C0.246763 8.29214 0.1875 8.14907 0.1875 7.99988C0.1875 7.8507 0.246763 7.70763 0.352252 7.60214C0.457742 7.49665 0.600816 7.43738 0.75 7.43738H15.8916L10.1025 1.64739C10.0031 1.54075 9.94905 1.39972 9.95162 1.25399C9.95419 1.10827 10.0132 0.969228 10.1163 0.866168C10.2193 0.763109 10.3584 0.704075 10.5041 0.701504C10.6498 0.698932 10.7909 0.753025 10.8975 0.852385L17.6475 7.60239C17.7528 7.70785 17.812 7.85082 17.812 7.99988C17.812 8.14895 17.7528 8.29192 17.6475 8.39739Z" fill="white"/>
</svg>
