<svg width="48" height="49" viewBox="0 0 48 49" fill="none" xmlns="http://www.w3.org/2000/svg">
<circle cx="24" cy="24.2681" r="23.5" stroke="#A56949"/>
<path d="M24 16.7681C23.11 16.7681 22.24 17.032 21.4999 17.5265C20.7599 18.0209 20.1831 18.7237 19.8425 19.546C19.5019 20.3683 19.4128 21.2731 19.5865 22.146C19.7601 23.0189 20.1887 23.8207 20.818 24.45C21.4474 25.0794 22.2492 25.508 23.1221 25.6816C23.995 25.8552 24.8998 25.7661 25.7221 25.4255C26.5443 25.0849 27.2471 24.5082 27.7416 23.7681C28.2361 23.0281 28.5 22.1581 28.5 21.2681C28.5 20.0746 28.0259 18.93 27.182 18.0861C26.3381 17.2422 25.1935 16.7681 24 16.7681ZM24 24.7681C23.3078 24.7681 22.6311 24.5628 22.0555 24.1782C21.4799 23.7936 21.0313 23.247 20.7664 22.6075C20.5015 21.9679 20.4322 21.2642 20.5673 20.5852C20.7023 19.9063 21.0356 19.2827 21.5251 18.7932C22.0146 18.3037 22.6383 17.9704 23.3172 17.8353C23.9961 17.7003 24.6999 17.7696 25.3394 18.0345C25.9789 18.2994 26.5256 18.748 26.9101 19.3236C27.2947 19.8991 27.5 20.5758 27.5 21.2681C27.5 21.7277 27.4095 22.1828 27.2336 22.6075C27.0577 23.0321 26.7999 23.4179 26.4749 23.7429C26.1499 24.0679 25.764 24.3258 25.3394 24.5016C24.9148 24.6775 24.4596 24.7681 24 24.7681ZM24 10.7681C21.2161 10.771 18.5472 11.8782 16.5787 13.8467C14.6102 15.8152 13.503 18.4842 13.5 21.2681C13.5 25.0706 15.2713 29.1168 18.625 32.9706C20.1422 34.7237 21.8498 36.3026 23.7163 37.6781C23.8002 37.7367 23.9001 37.7681 24.0025 37.7681C24.1049 37.7681 24.2048 37.7367 24.2887 37.6781C26.1535 36.3023 27.8594 34.7235 29.375 32.9706C32.7262 29.1168 34.5 25.0706 34.5 21.2681C34.497 18.4842 33.3898 15.8152 31.4213 13.8467C29.4528 11.8782 26.7839 10.771 24 10.7681ZM28.6375 32.2968C27.2406 33.8967 25.687 35.3527 24 36.6431C22.3128 35.3511 20.7592 33.8934 19.3625 32.2918C17.1438 29.7431 14.5 25.7556 14.5 21.2681C14.5 18.7485 15.5009 16.3321 17.2825 14.5506C19.0641 12.769 21.4804 11.7681 24 11.7681C26.5196 11.7681 28.9359 12.769 30.7175 14.5506C32.4991 16.3321 33.5 18.7485 33.5 21.2681C33.5 25.7556 30.8563 29.7431 28.6375 32.2968Z" fill="#A56949"/>
</svg>
