<svg width="18" height="16" viewBox="0 0 18 16" fill="none" xmlns="http://www.w3.org/2000/svg">
<path d="M17.8125 7.99988C17.8125 8.14907 17.7532 8.29214 17.6477 8.39763C17.5423 8.50312 17.3992 8.56238 17.25 8.56238H2.10843L7.89749 14.3524C7.95276 14.4039 7.99708 14.466 8.02783 14.535C8.05857 14.604 8.0751 14.6785 8.07644 14.754C8.07777 14.8295 8.06388 14.9045 8.03558 14.9746C8.00729 15.0446 7.96519 15.1082 7.91177 15.1617C7.85836 15.2151 7.79473 15.2572 7.72469 15.2855C7.65465 15.3138 7.57963 15.3277 7.5041 15.3263C7.42857 15.325 7.35409 15.3085 7.28509 15.2777C7.21609 15.247 7.15399 15.2027 7.10249 15.1474L0.352493 8.39739C0.247155 8.29192 0.187988 8.14895 0.187988 7.99988C0.187988 7.85082 0.247155 7.70785 0.352493 7.60239L7.10249 0.852385C7.20912 0.753025 7.35016 0.698932 7.49588 0.701504C7.64161 0.704075 7.78065 0.763109 7.88371 0.866168C7.98677 0.969228 8.0458 1.10827 8.04837 1.25399C8.05095 1.39972 7.99685 1.54075 7.89749 1.64739L2.10843 7.43738H17.25C17.3992 7.43738 17.5423 7.49665 17.6477 7.60214C17.7532 7.70763 17.8125 7.8507 17.8125 7.99988Z" fill="white"/>
</svg>
