<svg width="1189" height="1080" viewBox="0 0 1189 1080" fill="none" xmlns="http://www.w3.org/2000/svg">
<g opacity="0.05">
<path d="M293.167 21.6052L265.463 75.5931C264.822 76.8057 263.177 77.3636 261.784 76.8057L199.741 52.6979C198.348 52.1401 197.707 50.7334 198.348 49.4965L226.052 -4.49134C226.665 -5.70401 228.31 -6.26183 229.703 -5.70401L291.746 18.4038C293.139 18.9374 293.78 20.3683 293.139 21.6052M360.031 34.3867L226.359 -17.5639C223.739 -18.5825 220.645 -17.5638 219.475 -15.2598L159.746 101.059C159.133 102.272 159.746 103.703 161.139 104.236L166.212 106.201C167.606 106.734 169.25 106.201 169.863 104.988L191.575 62.7146C192.188 61.5019 193.833 60.9441 195.226 61.5019L257.268 85.6339C258.662 86.1675 259.275 87.5984 258.662 88.8111L236.95 131.06C236.337 132.273 236.95 133.704 238.344 134.262L243.388 136.226C244.782 136.76 246.426 136.226 247.067 135.014L268.752 92.7402C269.365 91.5275 271.009 90.9939 272.403 91.5275L320.955 110.421C322.349 110.954 323.993 110.421 324.606 109.208L326.864 104.794C327.477 103.581 326.864 102.15 325.47 101.593L276.89 82.7235C275.496 82.19 274.883 80.759 275.496 79.5464L303.201 25.5585C303.842 24.3459 305.458 23.788 306.88 24.3459L355.432 43.2392C356.826 43.7727 358.47 43.2392 359.111 42.0265L361.369 37.6124C361.982 36.3997 361.369 34.9688 359.975 34.4352" fill="white"/>
<path d="M637.243 1149.75L633.48 1146.59C632.477 1145.75 632.421 1144.34 633.369 1143.44C663.581 1114.68 663.916 1070.05 633.731 1040.9C603.546 1011.75 552.541 1007.36 516.503 1030.49C515.36 1031.22 513.772 1031.03 512.908 1030.06L509.675 1026.47C508.755 1025.45 509.006 1023.99 510.204 1023.22C529.38 1010.87 552.931 1005.05 576.845 1006.82C601.79 1008.67 624.756 1018.59 641.507 1034.79C658.258 1050.99 667.205 1071.89 666.703 1093.65C666.229 1114.53 657.115 1134.32 641.005 1149.63C640.002 1150.57 638.302 1150.62 637.243 1149.72" fill="white"/>
<path d="M1053.92 26.359L1049.82 28.5903C1048.71 29.1966 1048.34 30.4336 1048.99 31.4037C1060.8 48.9873 1063.9 70.1119 1057.4 89.7328C1044.33 129.217 996.755 152.088 951.38 140.713C906.005 129.338 879.722 87.9381 892.794 48.4538C899.288 28.8328 914.812 12.3648 935.604 2.95454C936.747 2.42097 937.193 1.2083 936.636 0.189664L934.517 -3.59384C933.932 -4.66099 932.427 -5.07329 931.201 -4.53972C908.067 5.91345 890.759 24.2732 883.512 46.1254C868.963 90.0724 898.201 136.129 948.704 148.79C999.207 161.45 1052.14 136.008 1066.68 92.0612C1073.93 70.209 1070.5 46.659 1057.29 27.0866C1056.59 26.0679 1055.09 25.7284 1053.92 26.359Z" fill="white"/>
<path d="M996.56 67.3712C1006.34 78.3579 1024.1 69.8208 1018.63 56.7725C1018.55 56.5542 1018.41 56.3602 1018.27 56.1904C1008.49 45.2037 990.734 53.7409 996.197 66.7891C996.281 67.0074 996.42 67.2014 996.56 67.3712Z" fill="white"/>
<path d="M941.345 53.5231C951.128 64.5098 968.882 55.9727 963.419 42.9244C963.336 42.7061 963.196 42.5121 963.057 42.3423C953.274 31.3556 935.52 39.8927 940.982 52.941C941.066 53.1593 941.205 53.3533 941.345 53.5231Z" fill="white"/>
<path d="M955.978 99.6769C965.761 110.664 983.515 102.126 978.052 89.0782C977.969 88.8599 977.829 88.6659 977.69 88.4961C967.907 77.5094 950.153 86.0465 955.616 99.0948C955.699 99.3131 955.838 99.5071 955.978 99.6769Z" fill="white"/>
<path d="M1229.68 268.553L1164.32 198.024C1164.02 197.709 1163.63 197.491 1163.15 197.394L1071.7 180.44C1070.62 180.246 1069.89 179.301 1070.14 178.33L1071.45 172.922C1071.68 171.976 1072.76 171.346 1073.88 171.564L1168.95 189.196C1169.39 189.293 1169.81 189.487 1170.12 189.827L1237.79 262.853C1238.49 263.605 1238.35 264.721 1237.49 265.351L1232.55 268.82C1231.69 269.426 1230.41 269.305 1229.68 268.553Z" fill="white"/>
<path d="M1169.92 193.488L1163.6 193.415C1162.48 193.415 1161.56 192.591 1161.59 191.621L1162.62 120.898C1162.62 119.928 1163.57 119.128 1164.68 119.152L1171.01 119.225C1172.13 119.225 1173.04 120.049 1173.02 121.019L1171.99 191.742C1171.99 192.712 1171.04 193.513 1169.92 193.488Z" fill="white"/>
<path d="M565.031 416.827L584.429 355.854C584.847 354.569 586.353 353.817 587.83 354.181L657.899 371.061C659.376 371.425 660.24 372.735 659.822 374.02L640.423 434.993C640.005 436.278 638.5 437.03 637.023 436.666L566.954 419.786C565.477 419.422 564.613 418.113 565.031 416.827ZM575.678 342.418L549.618 424.418C549.2 425.704 550.064 427.014 551.541 427.377L645.775 450.078C647.252 450.442 648.757 449.69 649.175 448.405L671.89 376.93C672.308 375.645 673.814 374.893 675.291 375.257L754.056 394.223C755.533 394.587 757.066 393.835 757.456 392.55L759.324 386.68C759.742 385.395 758.878 384.061 757.4 383.721L678.635 364.755C677.158 364.392 676.294 363.082 676.712 361.796L698.508 293.257C698.926 291.971 698.062 290.661 696.585 290.298L689.84 288.673C688.363 288.309 686.857 289.061 686.439 290.346L664.644 358.886C664.226 360.171 662.721 360.923 661.243 360.56L579.106 340.769C577.629 340.405 576.124 341.157 575.706 342.442" fill="white"/>
<path d="M1321.85 919.996L1317.56 923.731C1316.78 924.41 1315.5 924.41 1314.72 923.731L1257.3 873.769C1256.52 873.09 1255.24 873.09 1254.46 873.769L1203.4 918.201L1197.71 923.173C1196.93 923.852 1195.65 923.852 1194.87 923.173L1189.16 918.201L1138.1 873.769C1137.32 873.09 1136.03 873.09 1135.25 873.769L1077.84 923.731C1077.06 924.41 1075.78 924.41 1074.99 923.731L1070.73 919.996C1069.95 919.317 1069.95 918.201 1070.73 917.522L1135.25 861.352C1136.03 860.673 1137.32 860.673 1138.1 861.352L1194.87 910.756C1195.65 911.435 1196.93 911.435 1197.71 910.756L1254.46 861.352C1255.24 860.673 1256.52 860.673 1257.3 861.352L1321.85 917.498C1322.63 918.177 1322.63 919.293 1321.85 919.972" fill="white"/>
<path d="M1321.85 1001.78L1317.56 1005.51C1316.78 1006.19 1315.5 1006.19 1314.72 1005.51L1257.3 955.551C1256.52 954.872 1255.24 954.872 1254.46 955.551L1203.4 999.983L1197.71 1004.95C1196.93 1005.63 1195.65 1005.63 1194.87 1004.95L1189.16 999.983L1138.1 955.551C1137.32 954.872 1136.03 954.872 1135.25 955.551L1077.84 1005.51C1077.06 1006.19 1075.78 1006.19 1074.99 1005.51L1070.73 1001.78C1069.95 1001.1 1069.95 999.983 1070.73 999.304L1135.25 943.133C1136.03 942.454 1137.32 942.454 1138.1 943.133L1194.87 992.537C1195.65 993.216 1196.93 993.216 1197.71 992.537L1254.46 943.133C1255.24 942.454 1256.52 942.454 1257.3 943.133L1321.85 999.28C1322.63 999.959 1322.63 1001.07 1321.85 1001.75" fill="white"/>
<path d="M468.87 674.601C471.964 674.917 474.082 677.366 478.569 682.872C481.552 686.51 485.231 691.021 490.61 696.09C500.671 705.573 512.851 713.382 526.815 719.349C527.205 719.518 527.679 719.373 527.874 719.033L531.609 712.291C531.804 711.951 531.609 711.563 531.247 711.394C518.426 705.937 507.277 698.758 498.079 690.099C493.146 685.443 489.802 681.368 486.847 677.754C481.775 671.545 477.761 666.646 470.068 665.846C457.582 664.536 444.538 675.183 431.299 697.496C422.826 711.733 403.037 745.081 422.882 778.721C439.856 807.461 473.636 816.241 484.813 818.399C485.231 818.472 485.649 818.254 485.732 817.866L487.516 810.541C487.6 810.177 487.349 809.813 486.931 809.741C476.897 807.8 446.851 799.967 431.912 774.67C420.206 754.831 424.22 735.065 430.658 719.931C430.825 719.518 431.438 719.349 431.857 719.615L510.008 768.898C510.371 769.116 510.845 769.044 511.095 768.753L516.14 762.689C516.391 762.398 516.307 761.962 515.973 761.743L435.619 711.078C435.313 710.884 435.201 710.52 435.368 710.229C437.152 706.931 438.88 704.021 440.329 701.571C455.854 675.45 466.083 674.359 468.842 674.65" fill="white"/>
<path d="M27.2737 388.121L18.2991 387.636C17.8531 387.636 17.5187 387.272 17.5465 386.884L28.6952 228.583C28.7231 228.001 29.5313 227.71 30.033 228.074L113.954 289.604C114.456 289.968 115.236 289.701 115.292 289.119L120.086 236.95C120.114 236.562 120.504 236.271 120.978 236.295L129.925 236.926C130.371 236.95 130.705 237.29 130.677 237.702L124.239 307.77C124.183 308.352 123.403 308.643 122.901 308.255L39.3421 246.991C38.8404 246.603 38.0322 246.918 38.0043 247.5L28.1377 387.466C28.1377 387.854 27.7197 388.17 27.2737 388.145" fill="white"/>
<path d="M668.322 10.3276C668.322 10.3276 676.349 19.9804 678.579 23.4486C678.802 23.8124 679.415 23.7639 679.583 23.3758C681.032 20.2957 685.603 11.5402 689.756 12.7771C689.756 12.7771 687.052 20.2957 682.453 26.8198L692.571 41.5173C693.128 42.3177 694.271 42.6572 695.246 42.2934C698.535 41.0565 705.224 37.2245 705.392 26.4803C705.392 26.4803 714.088 37.37 698.814 45.9799C698.006 46.4407 697.671 47.2896 698.034 48.0415C699.511 51.0974 703.719 58.5674 711.077 62.4964C711.077 62.4964 706.534 45.2038 712.081 43.215C712.081 43.215 714.032 54.7354 713.92 63.5393C713.92 65.8434 714.394 68.0989 715.453 70.209C715.453 70.209 720.888 67.4441 717.042 52.407C717.042 52.407 725.543 57.864 720.637 71.6399C720.359 72.416 720.526 73.2649 721.111 73.8712L729.64 82.8449C729.64 82.8449 727.912 71.0821 730.783 68.9236C730.783 68.9236 751.491 45.2766 756.536 41.4688C757.093 41.0565 757.456 40.4502 757.567 39.8196C758.738 33.0529 762.222 -1.96886 718.798 -39.707C718.798 -39.707 731.173 -35.9235 738.67 -22.2204C739.005 -21.6383 739.98 -21.7838 740.036 -22.4144C740.426 -27.7744 740.649 -40.8711 734.852 -50.0874C734.852 -50.0874 746.279 -48.1714 744.189 -20.1588C744.133 -19.504 744.273 -18.8491 744.579 -18.2671C745.861 -15.7447 749.735 -8.15345 754.167 0.99004C754.167 0.99004 761.051 -2.74496 757.344 -26.5859C757.344 -26.5859 765.316 -25.5431 760.215 -0.222626C760.215 -0.222626 759.797 1.01429 759.323 3.68216C758.208 9.91526 758.264 16.2454 759.323 22.5027C759.992 26.553 760.661 31.7917 760.549 36.1088C760.549 36.1088 769.441 25.1221 771.364 11.807C771.364 11.807 778.136 22.4785 760.494 40.7655C760.494 40.7655 733.235 68.6325 735.855 72.0765C735.855 72.0765 730.448 79.1099 741.931 84.0091C741.931 84.0091 772.423 96.3783 772.228 104.697C772.228 104.697 772.897 120.753 739.339 109.014C738.475 108.699 737.444 108.844 736.747 109.402C732.678 112.701 718.296 123.979 707.008 127.156C706.172 127.398 705.475 127.859 705.085 128.538C704.026 130.357 701.936 134.116 701.211 136.517C700.904 137.488 701.127 138.531 701.768 139.355C704.249 142.508 712.304 152.282 718.129 154.028C718.129 154.028 732.232 161.086 742.712 167.295C748.37 170.642 753.219 174.91 756.982 179.858C760.131 184.005 764.061 189.414 766.57 193.901C767.267 195.113 765.371 196.156 764.396 195.113C761.469 191.888 757.038 187.086 750.85 180.44C747.004 176.293 742.461 172.631 737.249 169.841C734.963 168.629 732.455 167.489 729.891 166.737C729.891 166.737 706.061 156.502 701.378 152.015C701.378 152.015 696.807 153.859 704.5 157.618C704.5 157.618 731.061 167.901 743.436 179.519C743.436 179.519 753.303 186.188 752.829 195.283C752.745 196.593 750.683 196.981 749.958 195.841C747.366 191.791 741.931 184.709 732.232 177.457C727.856 174.207 722.951 171.539 717.683 169.478C710.186 166.543 698.675 162.663 691.985 163.511C691.985 163.511 691.233 163.608 690.146 163.73C683.624 164.385 677.241 165.718 671.026 167.61C657.843 171.66 632.201 174.668 595.355 157.448C593.989 156.818 592.317 157.06 591.257 158.03C588.582 160.504 584.373 166.446 585.181 179.155C585.181 179.155 583.899 187.959 579.161 192.13C577.294 193.78 575.928 195.793 575.343 198.048C572.611 208.695 565.337 235.01 561.797 225.891L570.716 185.461C570.716 185.461 572.026 174.377 571.329 172.97C571.329 172.97 567.762 181.313 568.013 188.856C568.013 188.856 567.65 195.841 563.553 200.983C561.351 203.748 559.595 206.779 558.815 210.078C556.725 218.93 553.018 230.717 549.924 224.048L558.062 191.572C558.676 189.171 558.676 186.698 557.979 184.321C557.282 181.944 556.725 178.088 557.589 172.703C556.334 167.246 554.133 162.008 551.457 156.939C548.196 150.754 546.607 139.355 567.232 127.35C567.232 127.35 576.792 121.941 610.573 128.005C610.573 128.005 628.633 129.678 646.387 123.639C654.024 121.044 662.219 119.952 670.413 119.831C677.743 119.71 686.523 118.303 692.376 113.21C692.376 113.21 705.503 105.764 713.586 97.2029C715.983 94.6563 718.408 92.1339 721.083 89.7814L723.592 87.5986L697.894 56.4573C696.612 54.9051 695.163 53.4984 693.435 52.3343C690.843 50.588 685.268 44.7673 676.322 25.4859C675.876 24.4915 675.179 23.5941 674.315 22.8665C668.936 18.3069 648.645 0.747509 646.638 -7.06205C646.638 -7.06205 662.191 10.085 665.284 10.2305C668.378 10.3518 662.999 -14.9444 662.999 -14.9444C662.999 -14.9444 673.73 -1.60506 668.406 10.3518" fill="white"/>
<path d="M140.96 496.703C142.214 500.827 141.378 504.925 154.589 510.77C155.704 511.255 157.042 511.28 158.101 510.722C162.616 508.369 171.368 507.181 176.887 506.647C179.507 506.405 182.154 506.332 184.802 506.453C208.354 507.569 233.187 502.937 252.642 497.795C271.734 492.774 289.516 484.65 305.235 473.978C325.637 460.129 346.402 448.561 346.402 448.561C368.532 438.762 376.642 431.462 379.457 428.139C380.266 427.169 380.795 426.029 380.907 424.841C381.297 420.912 383.694 417.056 386.62 413.733C386.174 413.442 355.544 393.19 326.585 383.368C307.799 376.989 286.589 379.609 271.065 390.11L270.981 390.256C270.981 390.256 270.897 390.256 270.842 390.256C268.389 391.929 266.076 393.772 263.957 395.834C256.265 403.28 249.13 413.927 243.946 429.109C243.946 429.109 243.137 422.707 246.343 413.951C246.287 413.927 246.343 413.951 246.287 413.927C244.113 415.528 242.078 417.298 240.155 419.166L239.96 419.069C241.883 416.013 244.197 412.908 247.346 410.701C247.485 410.628 247.653 410.556 247.792 410.459C249.436 406.942 251.75 403.158 254.983 399.351C255.512 398.696 256.098 398.09 256.655 397.459C255.986 397.313 255.345 397.119 254.648 396.901C252.642 396.44 250.551 396.077 248.433 395.81V395.616C251.61 395.228 255.094 395.009 258.216 395.785C260.474 393.53 262.898 391.468 265.49 389.577C265.49 389.552 265.49 389.577 265.49 389.528C263.261 388.97 260.919 388.558 258.55 388.267V388.073C261.505 387.709 264.682 387.515 267.609 388.097C272.709 384.653 278.339 381.913 284.276 379.924C282.994 379.754 281.712 379.463 280.374 379.075C277.698 378.59 274.939 378.153 272.124 377.911V377.644C276.305 377.013 280.792 376.553 285.001 377.402C286.004 377.741 286.952 378.178 287.816 378.832C293.501 377.232 299.438 376.286 305.43 376.043C304.901 375.316 304.427 374.564 303.953 373.715C302.476 371.702 300.943 369.689 299.215 367.749L299.41 367.555C302.838 369.762 306.35 372.236 308.552 375.461C308.636 375.631 308.691 375.825 308.775 375.995C313.82 375.995 318.864 376.528 323.854 377.547C323.575 377.183 323.324 376.819 323.045 376.431C321.401 374.54 319.645 372.624 317.75 370.805L317.917 370.586C321.54 372.527 325.275 374.758 327.783 377.814C327.923 378.056 328.062 378.299 328.174 378.541C330.821 379.245 333.441 380.118 336.006 381.136C337.538 381.743 339.099 382.422 340.66 383.15C340.688 383.101 340.66 383.15 340.688 383.125C338.96 381.112 337.12 379.099 335.114 377.183L335.309 376.965C338.932 378.905 342.667 381.136 345.175 384.192C345.482 384.702 345.733 385.26 345.928 385.817C347.739 386.812 349.551 387.855 351.363 389.043C353.481 390.426 355.655 391.759 357.829 393.069C357.69 392.657 357.55 392.244 357.411 391.808C356.435 389.577 355.404 387.321 354.178 385.114L354.429 384.969C357.272 387.733 360.114 390.789 361.508 394.33C361.592 394.67 361.62 394.985 361.675 395.325C365.772 397.701 369.925 400.006 374.134 402.261C373.298 400.636 372.406 399.011 371.486 397.41L371.709 397.241C374.078 399.108 376.837 401.388 378.175 403.935C378.231 404.129 378.287 404.323 378.315 404.517L389.63 410.507C391.777 408.494 393.923 406.797 395.623 405.584C389.686 396.731 368.671 383.295 358.805 377.304C356.045 375.631 353.314 373.885 350.722 372.017C320.565 350.238 284.359 359.333 284.359 359.333C223.516 372.915 222.289 430.686 222.289 430.686C221.76 427.024 221.816 423.313 222.262 419.651C221.398 421.009 220.45 422.294 219.419 423.628C217.83 426.005 216.436 428.527 215.238 431.098L215.015 431.05C215.99 426.927 217.412 422.658 220.06 419.093C220.812 418.293 221.648 417.516 222.652 416.91C223.265 413.224 224.24 409.586 225.439 406.166C226.219 403.959 227.083 401.8 228.087 399.666C226.721 400.539 225.3 401.315 223.795 402.116C221.202 403.692 218.75 405.487 216.409 407.379L216.241 407.257C219.084 403.862 222.429 400.515 226.554 398.235C227.39 397.871 228.31 397.556 229.229 397.338C231.71 392.438 234.776 387.782 238.343 383.465C236.755 384.192 235.11 384.823 233.382 385.478C230.567 386.715 227.808 388.146 225.16 389.722L225.021 389.577C228.421 386.593 232.295 383.707 236.783 381.985C237.87 381.67 238.985 381.452 240.127 381.403C243.723 377.377 247.764 373.642 252.224 370.32C251.61 370.441 250.997 370.562 250.384 370.683C247.346 371.435 244.336 372.405 241.409 373.521L241.298 373.351C245.284 370.974 249.715 368.767 254.481 367.821C254.955 367.773 255.457 367.724 255.93 367.724C259.303 365.493 262.843 363.48 266.605 361.685C268.222 360.909 269.838 360.23 271.427 359.575C270.145 359.212 268.863 358.823 267.553 358.411C264.543 357.611 261.393 357.004 258.216 356.592V356.398C263.066 356.277 268.138 356.495 272.737 357.926C273.211 358.12 273.657 358.338 274.103 358.557C280.374 356.253 286.366 354.822 292.024 354.07C291.522 353.851 291.021 353.633 290.519 353.391C287.648 352.251 284.638 351.305 281.544 350.505V350.311C286.394 350.723 291.411 351.547 295.759 353.488C295.843 353.536 295.926 353.585 295.982 353.633C301.751 353.148 307.131 353.342 311.924 353.9C309.193 352.857 306.35 351.935 303.424 351.184V350.99C307.855 351.378 312.426 352.081 316.468 353.682C317.387 354.046 318.251 354.506 319.032 355.064C327.505 356.859 333.441 359.551 335.783 360.715C336.87 361.273 337.984 361.831 339.099 362.364C339.991 362.801 340.855 363.213 341.719 363.65C341.301 363.116 340.911 362.583 340.521 362.001C338.625 359.818 336.619 357.659 334.389 355.622L334.584 355.404C338.291 357.441 342.026 359.818 344.757 362.85C345.621 363.795 346.262 364.911 346.625 366.075C353.788 369.762 360.114 373.424 365.717 376.941C364.964 375.946 364.295 374.903 363.626 373.788C361.926 371.508 360.087 369.204 358.024 367.045L358.219 366.851C361.592 369.01 364.936 371.459 367.389 374.443C368.281 375.534 369.005 376.747 369.312 378.081C369.396 378.493 369.479 378.929 369.479 379.366C377.423 384.58 383.638 389.358 388.265 393.263C388.014 392.511 387.791 391.735 387.568 390.935C386.592 388.34 385.478 385.72 384.112 383.198L384.363 383.053C387.429 386.351 390.355 390.037 391.721 394.16C391.86 394.888 391.916 395.64 391.86 396.392C394.536 398.793 396.431 400.685 397.546 401.873C398.354 402.698 398.856 403.716 399.023 404.783C400.473 414.145 410.339 418.899 410.339 418.899L441.109 430.516C442.141 430.904 442.921 431.705 443.144 432.651C445.067 440.727 417.976 436.604 417.976 436.604C396.543 433.839 386.342 454.115 383.025 462.7C382.189 464.859 382.105 467.187 382.802 469.394C387.986 485.984 388.265 518.822 388.265 518.871C408.639 555.13 441.472 578.049 441.472 578.049C430.964 583.627 378.12 530.367 377.924 530.173L371.598 531.871C379.792 567.305 405.573 585.01 405.601 585.01C378.984 586.125 361.062 532.065 361.034 532.016C275.162 510.746 217.886 567.887 217.886 567.887C216.743 582.366 240.155 620.541 240.155 620.589C224.854 617.121 208.521 571.743 208.521 571.719C199.574 569.148 199.797 578.801 199.797 578.801C222.568 629.83 216.687 630.751 216.576 630.776C174.573 581.347 197.958 576.836 183.687 562.891C171.089 550.594 157.767 523.964 154.84 517.925C154.45 517.125 153.725 516.518 152.806 516.155C132.181 508.297 135.888 495.176 137.532 491.271C137.922 490.373 139.148 489.888 140.096 490.373C140.57 490.616 140.626 490.98 140.542 491.416C140.319 492.532 140.235 493.672 140.403 494.812L140.458 495.2C140.542 495.661 140.654 496.121 140.793 496.582" fill="white"/>
<path d="M796.444 742.244C789.783 747.92 771.833 751.946 771.833 751.946L769.994 740.522C781.338 734.799 789.42 734.653 794.047 735.429C797.698 736.06 799.12 739.965 796.444 742.244ZM761.995 755.317C761.995 755.317 669.991 784.591 649.394 787.962L756.894 750.951C758.204 750.491 759.626 750.321 761.019 750.563C762.915 750.879 764.643 751.97 761.995 755.317ZM714.446 876.293C713.61 875.953 713.582 874.934 714.39 874.57L774.063 847.383C775.903 846.558 778.16 846.922 779.442 848.328C780.111 849.056 780.892 849.784 781.728 850.22C782.898 850.851 783.762 851.821 784.097 852.985C786.076 860.018 792.152 881.192 797.252 894.676C799.203 899.867 802.353 904.62 806.199 908.913C808.067 910.999 809.711 914.031 808.066 917.353C808.066 917.353 796.221 944.493 802.882 938.817C802.882 938.817 818.128 925.696 810.77 909.98L792.709 854.149C791.873 851.578 791.957 848.838 793.044 846.315C795.524 840.47 798.785 829.144 788.417 825.918C786.327 825.264 784.822 823.614 784.459 821.698L772.335 757.209C772.335 757.209 794.493 752.261 801.74 743.918C805.474 739.601 803.217 733.489 797.308 731.791C792.068 730.288 784.013 731.209 768.712 735.939L767.123 729.9C772.586 727.377 775.903 721.944 774.593 716.196C773.283 710.424 767.402 706.156 760.657 706.059C751.822 705.913 745.049 712.461 745.857 719.907C746.498 725.873 751.822 730.457 758.371 731.233C758.26 733.028 757.926 740.062 759.514 745.422L644.265 784.761C644.265 784.761 633.395 762.69 641.171 718.573C641.171 718.573 620.546 738.024 638.301 793.201C638.301 793.201 589.609 807.122 584.369 812.991C584.369 812.991 625.647 803.096 638.747 797.251C638.747 797.251 658.898 831.084 690.811 846.897C690.811 846.897 649.589 814.107 648.948 793.686C648.948 793.686 749.508 762.545 763.305 759.683L780.306 833.025C780.306 833.025 718.348 862.517 702.461 873.406C700.036 875.08 700.092 878.281 702.573 879.906C707.896 883.423 720.383 890.141 748.616 900.473C749.815 900.91 750.4 902.098 749.982 903.165C747.028 910.296 741.147 925.502 746.275 921.113C746.275 921.113 759.793 909.495 755.222 894.992C754.86 893.828 753.912 892.882 752.658 892.372L714.418 876.293H714.446Z" fill="white"/>
<path d="M943.245 1120.89L937.977 1122.95C936.305 1123.39 934.577 1123.65 932.793 1123.75C925.937 1124.11 919.331 1121.81 914.175 1117.25C908.991 1112.67 905.869 1106.38 905.423 1099.52C904.503 1085.67 914.844 1073.76 928.585 1072.6C928.863 1072.6 929.142 1072.55 929.421 1072.55C936.277 1072.19 942.883 1074.49 948.039 1079.05C953.223 1083.63 956.317 1089.94 956.791 1096.78C957.46 1107.14 951.857 1116.38 943.245 1120.89ZM967.215 1134.83C967.549 1135.08 974.322 1139.54 981.095 1138.98C982.516 1138.86 983.938 1138.52 985.275 1137.86C991.742 1134.81 994.752 1125.79 994.25 1111.11C994.306 1111.11 994.334 1111.11 994.361 1111.11C996.424 1110.94 997.873 1109.1 997.204 1107.21C996.814 1106.09 995.727 1105.27 994.445 1105.15C992.271 1104.93 990.543 1106.55 990.738 1108.4C990.85 1109.46 991.602 1110.36 992.606 1110.8C993.163 1125.06 990.432 1133.72 984.523 1136.53C979.004 1139.15 972.064 1135.85 969.333 1134.32C968.72 1133.98 968.218 1133.5 967.856 1132.94C961.863 1123.05 951.802 1119.92 948.568 1119.17C951.662 1116.64 954.171 1113.47 955.899 1109.85L955.731 1110.22C1003.03 1095.98 1010.67 1057.27 1011.5 1051.77C1011.59 1051.77 1011.67 1051.77 1011.75 1051.77C1013.59 1051.6 1014.93 1050.14 1014.76 1048.49C1014.57 1046.72 1012.7 1045.46 1010.72 1045.85C1009.33 1046.11 1008.24 1047.23 1008.13 1048.52C1008.02 1049.8 1008.8 1050.89 1009.91 1051.43C1009.27 1055.99 1002.56 1094.06 956.512 1108.45C957.794 1105.27 958.491 1101.8 958.463 1098.16C998.598 1077.33 998.932 1037.36 998.849 1032.85C1000.24 1032.34 1001.16 1031 1000.88 1029.55C1000.6 1028.07 999.016 1026.98 997.344 1027.1C995.476 1027.22 994.111 1028.7 994.278 1030.37C994.417 1031.8 995.699 1032.92 997.232 1033.07C997.316 1038.21 996.508 1076.19 958.435 1096.46C958.24 1093.65 957.599 1090.93 956.568 1088.36C966.295 1081.6 971.869 1068.84 972.733 1051.45C973.291 1040.05 971.646 1030.03 971.2 1027.54C972.426 1027 973.207 1025.84 973.068 1024.55C972.9 1022.95 971.284 1021.74 969.5 1021.86C967.633 1021.98 966.267 1023.46 966.434 1025.14C966.601 1026.64 967.967 1027.75 969.584 1027.83C970.559 1033.21 976.635 1071.94 955.927 1086.93C955.09 1085.14 954.059 1083.44 952.861 1081.86C972.231 1059.96 958.407 1030.86 956.094 1026.37C957.487 1025.86 958.379 1024.53 958.101 1023.1C957.822 1021.62 956.233 1020.53 954.561 1020.65C952.693 1020.77 951.328 1022.25 951.495 1023.92C951.634 1025.35 952.889 1026.44 954.394 1026.61C955.007 1027.73 958.965 1035.3 960.693 1045.24C962.365 1054.92 962.114 1068.84 951.829 1080.7C951.021 1079.75 950.157 1078.86 949.21 1078.01C947.76 1076.72 946.199 1075.63 944.583 1074.68C964.288 1056.03 942.548 1024.84 940.04 1021.38C940.792 1020.65 941.183 1019.63 940.848 1018.54C940.486 1017.33 939.287 1016.43 937.894 1016.33C935.803 1016.19 934.159 1017.76 934.326 1019.56C934.41 1020.5 935.079 1021.33 935.998 1021.84C937.057 1022.42 937.922 1022.39 938.674 1022.18C941.015 1025.38 962.532 1056.08 943.161 1073.93C940.959 1072.84 938.646 1072.07 936.249 1071.58C945.363 1050.36 927.442 1031.95 923.596 1028.34C924.571 1027.58 925.045 1026.35 924.599 1025.11C924.209 1024.02 923.122 1023.22 921.84 1023.1C919.666 1022.88 917.938 1024.5 918.133 1026.35C918.3 1028 919.916 1029.21 921.756 1029.04C921.867 1029.04 921.951 1029.02 922.035 1028.99C924.543 1031.25 944.025 1049.87 934.633 1071.26C932.905 1071.02 931.149 1070.95 929.393 1071.05C926.856 1071.19 924.46 1071.7 922.174 1072.45C922.592 1065.15 907.514 1037.8 904.922 1033.14C905.981 1032.46 906.566 1031.25 906.204 1029.96C905.841 1028.68 904.531 1027.75 903.082 1027.73C901.047 1027.68 899.487 1029.23 899.682 1031C899.849 1032.65 901.465 1033.87 903.305 1033.7C903.333 1033.7 903.361 1033.7 903.389 1033.7C908.768 1043.3 922.035 1068.62 920.53 1073.11L920.753 1072.99C918.133 1074.03 915.736 1075.46 913.617 1077.21C908.768 1075.22 898.734 1053.1 893.02 1038.35C894.024 1037.65 894.525 1036.44 894.163 1035.2C893.773 1033.94 892.491 1033.04 891.042 1033.02C889.007 1032.97 887.446 1034.52 887.641 1036.29C887.808 1037.94 889.425 1039.15 891.264 1038.98C891.348 1038.98 891.432 1038.96 891.515 1038.94C893.16 1043.16 905.2 1073.69 912.391 1078.23C910.579 1079.87 909.047 1081.79 907.764 1083.88C886.861 1080.72 882.067 1048.78 881.537 1044.73C882.792 1044.22 883.6 1043.06 883.46 1041.75C883.293 1040.15 881.677 1038.91 879.893 1039.03C878.026 1039.15 876.66 1040.63 876.827 1042.31C876.994 1043.79 878.304 1044.9 879.921 1045C880.199 1047.13 881.426 1055.28 884.798 1063.63C889.871 1076.16 897.536 1083.61 907.012 1085.23C904.726 1089.5 903.528 1094.4 903.862 1099.59C903.862 1099.69 903.89 1099.79 903.89 1099.88C877.803 1096.32 861.303 1059.89 859.658 1056.06C860.745 1055.38 861.386 1054.17 861.024 1052.86C860.661 1051.57 859.351 1050.63 857.874 1050.58C855.84 1050.53 854.307 1052.08 854.474 1053.85C854.641 1055.5 856.258 1056.71 858.097 1056.54C858.906 1058.39 863.114 1067.85 870.194 1077.52C880.506 1091.66 892.212 1099.91 904.058 1101.36C904.531 1104.93 905.702 1108.32 907.486 1111.38C874.458 1122.58 842.796 1079.56 838.866 1073.98C839.869 1073.28 840.427 1072.07 840.036 1070.83C839.674 1069.57 838.364 1068.65 836.915 1068.62C834.88 1068.57 833.319 1070.12 833.515 1071.9C833.682 1073.54 835.298 1074.76 837.138 1074.59C837.221 1074.59 837.277 1074.56 837.333 1074.56C840.371 1078.9 868.103 1117.25 899.403 1114.58C902.33 1114.34 905.284 1113.71 908.266 1112.67C909.604 1114.7 911.193 1116.57 913.088 1118.24C913.534 1118.63 914.008 1119 914.481 1119.36C876.381 1131.27 834.825 1105.12 831.508 1102.94C831.898 1102.24 832.01 1101.41 831.647 1100.56C831.229 1099.52 830.17 1098.77 828.944 1098.65C826.519 1098.4 824.679 1100.39 825.348 1102.48C825.683 1103.47 826.602 1104.27 827.717 1104.52C828.776 1104.76 829.696 1104.52 830.421 1104.06C832.79 1105.61 865.65 1126.56 900.128 1123.63C905.34 1123.19 910.775 1122.1 915.959 1120.4L915.652 1120.23C920.502 1123.6 926.271 1125.33 932.208 1125.18L929.978 1124.72C929.978 1124.72 933.574 1139.25 938.367 1148.27C938.674 1148.83 938.423 1149.51 937.81 1149.8C934.911 1151.2 927.163 1155.18 925.77 1158.38C925.128 1159.86 926.912 1161.24 928.501 1160.57C931.149 1159.4 936.5 1156.98 939.12 1155.28C939.873 1154.79 940.932 1155.11 941.21 1155.88L962.086 1211.93C962.086 1211.93 971.953 1233.54 974.294 1243.12C974.768 1245.06 976.524 1246.52 978.726 1246.79C982.962 1247.32 989.122 1247.51 989.512 1244.38C989.512 1244.38 990.627 1243.24 980.147 1243.03C978.726 1243 977.499 1242.15 977.137 1240.92L967.159 1209.19C966.741 1207.86 966.824 1206.4 967.465 1205.14C968.162 1203.76 969.361 1202.21 971.535 1201.46C973.709 1200.7 976.273 1201.72 977.193 1203.66C979.98 1209.51 987.254 1224.13 994.055 1232.14C995.142 1233.4 996.731 1234.25 998.486 1234.47C1001.72 1234.88 1006.71 1235.14 1007.04 1232.91C1007.04 1232.91 1009.05 1231.12 1002.53 1231.09C1000.66 1231.09 998.96 1230.2 998.013 1228.74C992.968 1220.83 976.691 1194.25 959.717 1155.64C959.522 1155.21 959.912 1154.74 960.442 1154.84C964.511 1155.42 978.307 1157.22 983.324 1155.4C984.634 1154.91 984.829 1153.29 983.631 1152.56C981.987 1151.54 978.53 1150.35 971.423 1150.48C968.636 1150.52 965.849 1150.21 963.201 1149.38C960.163 1148.44 956.902 1146.79 956.01 1143.98C956.01 1143.98 950.38 1131.9 946.45 1125.74C945.67 1124.5 945.001 1123.22 944.499 1121.86C945.503 1121.32 946.45 1120.72 947.342 1120.06L947.091 1120.23C947.091 1120.23 960.497 1122.68 967.019 1134.49L967.27 1134.76L967.215 1134.83Z" fill="white"/>
<path d="M904.281 1008.98C902.609 1009.13 901.355 1010.41 901.522 1011.89C901.689 1013.35 903.167 1014.44 904.867 1014.29C906.539 1014.15 907.793 1012.86 907.626 1011.38C907.459 1009.93 905.982 1008.84 904.281 1008.98Z" fill="white"/>
<path d="M931.595 1000.3C929.923 1000.44 928.669 1001.73 928.836 1003.21C929.003 1004.66 930.48 1005.76 932.181 1005.61C933.853 1005.47 935.107 1004.18 934.94 1002.7C934.773 1001.25 933.295 1000.15 931.595 1000.3Z" fill="white"/>
<path d="M925.434 1019C925.434 1019 917.407 1021.4 915.762 1024.21C915.512 1024.62 915.902 1025.13 916.431 1025.06C919.386 1024.75 928.221 1023.56 931.343 1020.62C932.569 1019.46 933.74 1018.25 935.133 1017.23C937.001 1015.85 937.335 1014.78 925.434 1019Z" fill="white"/>
<path d="M187.562 851.796C178.615 828.44 200.494 800.961 236.365 790.556C242.999 788.64 249.716 787.403 256.349 786.845C267.163 785.948 277.727 786.894 287.259 789.683C302.532 794.146 313.319 802.804 317.611 814.058C321.931 825.311 319.255 837.874 310.141 849.419C300.916 861.036 286.255 870.228 268.836 875.297C232.965 885.702 196.537 875.152 187.59 851.796M352.395 919.123C348.827 917.619 345.455 915.8 342.5 913.545L326 900.982C322.795 898.532 319.841 895.888 316.914 893.172C297.989 875.564 278.841 882.234 273.239 884.804C271.706 885.508 269.978 885.944 268.25 885.775C263.094 885.314 261.812 881.264 261.505 879.299C264.209 878.741 266.912 878.086 269.588 877.31C287.51 872.096 302.644 862.637 312.148 850.632C321.736 838.529 324.495 825.311 319.924 813.403C315.353 801.494 304.037 792.351 288.011 787.67C272.124 783.038 253.506 783.353 235.557 788.543C198.432 799.312 175.828 827.979 185.221 852.451C192.886 872.411 219.475 883.519 249.186 881.07C250.496 880.973 251.834 880.827 253.172 880.657C256.572 889.704 243.389 889.388 236.978 888.758C234.916 888.54 232.937 889.364 231.794 890.892L204.926 927.248C203.477 929.212 201.581 930.862 199.658 932.462C196.983 934.718 197.373 938.016 197.373 938.016C201.526 945.608 208.856 933.408 208.856 933.408L233.076 906.851C240.908 905.153 251.945 930.692 256.377 941.848C257.436 944.492 257.157 947.427 255.597 949.852C254.482 951.598 253.562 953.684 252.949 955.309C252.308 957.007 252.168 958.801 252.559 960.548L263.624 1009.73C268.445 1021.25 264.237 1030.59 261.255 1035.13C260.223 1036.73 261.923 1038.67 263.93 1038.09C269.978 1036.34 272.626 1028.65 273.351 1026.15C273.49 1025.64 273.518 1025.16 273.434 1024.65C272.849 1021.28 270.396 1006.19 269.95 986.014C269.672 972.602 272.626 967.484 275.135 965.568C276.5 964.525 278.702 965.229 279.12 966.781L293.14 1019.31C290.631 1028.99 311.646 1034.23 311.646 1034.23C318.419 1031.15 301.362 1019.41 301.362 1019.41C299.606 1018.03 297.515 998.771 296.512 988.124C296.15 984.316 296.122 980.508 296.122 976.676C296.122 960.523 286.98 948.445 286.98 948.445C279.789 933.141 291.467 908.379 295.62 900.424C296.624 898.508 298.909 897.344 301.334 897.513C318.614 898.823 354.318 926.399 354.318 926.399C360.505 923.586 356.352 920.821 352.395 919.123Z" fill="white"/>
<path d="M261.506 863.099C248.574 866.858 235.196 867.125 223.824 863.875C212.592 860.673 204.648 854.392 201.527 846.194C198.377 837.996 200.384 828.853 207.185 820.388C214.041 811.851 224.939 805.085 237.871 801.325C242.86 799.87 247.905 798.949 252.894 798.536C260.837 797.881 268.586 798.536 275.554 800.549C286.786 803.751 294.729 810.032 297.851 818.23C301 826.428 298.994 835.571 292.193 844.011C285.337 852.548 274.439 859.315 261.506 863.074M294.2 845.248C301.446 836.25 303.565 826.403 300.164 817.575C296.764 808.723 288.291 801.98 276.306 798.536C264.433 795.141 250.497 795.432 237.091 799.312C223.685 803.193 212.341 810.251 205.178 819.176C197.931 828.174 195.813 838.021 199.213 846.849C202.614 855.701 211.087 862.444 223.071 865.888C230.374 867.973 238.457 868.677 246.734 867.998C251.891 867.585 257.13 866.615 262.287 865.112C275.693 861.207 287.037 854.173 294.2 845.248Z" fill="white"/>
<path d="M255.569 839.281C249.131 841.149 242.609 839.402 241.076 835.376C240.352 833.485 240.825 831.35 242.442 829.361C244.114 827.276 246.79 825.602 249.995 824.681C251.249 824.317 252.504 824.098 253.702 823.977C258.775 823.565 263.234 825.335 264.488 828.585C265.213 830.477 264.739 832.611 263.123 834.624C261.45 836.71 258.775 838.384 255.569 839.305M265.129 835.813C267.192 833.266 267.777 830.453 266.802 827.906C264.823 822.765 256.935 820.412 249.215 822.643C245.536 823.71 242.414 825.651 240.435 828.125C238.373 830.671 237.787 833.484 238.763 836.031C240.379 840.227 245.954 842.58 252.141 842.07C253.535 841.949 254.928 841.706 256.35 841.294C260.029 840.227 263.15 838.287 265.129 835.813Z" fill="white"/>
<path d="M232.019 818.641C231.573 817.477 232.91 816.022 234.889 815.44C235.307 815.319 235.726 815.246 236.116 815.222C237.677 815.1 239.07 815.586 239.405 816.507C239.851 817.671 238.541 819.127 236.534 819.709C234.527 820.291 232.437 819.806 232.019 818.641ZM241.746 815.828C240.882 813.548 237.454 812.457 234.137 813.427C230.82 814.397 228.841 817.041 229.705 819.321C230.43 821.212 232.883 822.279 235.586 822.061C236.171 822.013 236.757 821.916 237.342 821.746C240.659 820.776 242.638 818.132 241.774 815.852" fill="white"/>
<path d="M215.907 832.636C215.629 831.932 216.047 831.277 216.326 830.938C216.855 830.283 217.747 829.725 218.806 829.41C219.224 829.289 219.642 829.216 220.032 829.192C221.593 829.07 222.987 829.555 223.321 830.477C223.767 831.641 222.457 833.096 220.451 833.678C218.444 834.261 216.353 833.775 215.935 832.611M225.635 829.822C224.771 827.518 221.342 826.451 218.026 827.421C216.465 827.882 215.155 828.707 214.319 829.749C213.399 830.865 213.148 832.175 213.594 833.339C214.319 835.231 216.771 836.298 219.447 836.08C220.032 836.031 220.618 835.934 221.203 835.764C224.52 834.794 226.499 832.151 225.635 829.871" fill="white"/>
<path d="M231.934 846.679C231.822 847.891 229.955 848.813 227.837 848.667C226.75 848.595 225.718 848.255 225.022 847.721C224.659 847.455 224.074 846.897 224.158 846.169C224.241 845.151 225.607 844.326 227.307 844.18C227.614 844.156 227.948 844.156 228.255 844.18C230.373 844.326 232.045 845.466 231.962 846.679M228.422 842.046C224.938 841.804 221.928 843.574 221.705 845.999C221.593 847.212 222.234 848.425 223.405 849.322C224.52 850.171 226.025 850.68 227.642 850.802C228.115 850.826 228.561 850.826 229.007 850.802C231.878 850.559 234.191 848.958 234.359 846.873C234.582 844.471 231.906 842.313 228.422 842.07" fill="white"/>
<path d="M250.191 853.081C250.135 853.809 249.438 854.27 249.048 854.488C248.267 854.925 247.18 855.119 246.093 855.046C245.006 854.973 243.975 854.634 243.278 854.1C242.916 853.833 242.331 853.275 242.414 852.548C242.498 851.529 243.864 850.705 245.564 850.559C245.87 850.535 246.205 850.535 246.512 850.559C248.63 850.705 250.302 851.845 250.218 853.057M246.679 848.449C243.195 848.206 240.185 849.977 239.962 852.402C239.85 853.615 240.491 854.828 241.662 855.725C242.777 856.574 244.282 857.083 245.898 857.204C246.372 857.229 246.818 857.229 247.292 857.204C248.407 857.107 249.466 856.816 250.358 856.331C251.696 855.604 252.532 854.488 252.615 853.275C252.838 850.874 250.163 848.716 246.679 848.473" fill="white"/>
<path d="M259.361 807.34C259.779 807.219 260.197 807.146 260.587 807.122C262.148 807 263.542 807.485 263.876 808.407C264.155 809.11 263.737 809.765 263.458 810.105C262.928 810.76 262.036 811.317 260.977 811.633C258.971 812.215 256.908 811.73 256.462 810.566C256.016 809.401 257.326 807.946 259.333 807.364M260.03 813.961C260.615 813.913 261.2 813.816 261.786 813.646C263.346 813.185 264.656 812.385 265.493 811.317C266.384 810.202 266.663 808.892 266.217 807.728C265.353 805.448 261.925 804.357 258.608 805.327C255.292 806.297 253.313 808.941 254.177 811.22C254.901 813.112 257.354 814.179 260.03 813.961Z" fill="white"/>
<path d="M278.702 818.448C278.173 819.103 277.281 819.661 276.222 819.976C274.215 820.558 272.152 820.073 271.706 818.909C271.26 817.745 272.57 816.29 274.577 815.708C274.995 815.586 275.413 815.514 275.803 815.489C277.364 815.368 278.758 815.853 279.092 816.775C279.343 817.478 278.953 818.133 278.674 818.472M273.825 813.695C270.508 814.665 268.529 817.308 269.393 819.588C270.118 821.48 272.57 822.547 275.246 822.329C275.831 822.28 276.417 822.183 277.002 822.013C278.563 821.553 279.873 820.752 280.709 819.685C281.601 818.569 281.879 817.26 281.434 816.096C280.57 813.816 277.141 812.724 273.825 813.695Z" fill="white"/>
<path d="M266.856 851.044C264.849 851.626 262.759 851.141 262.341 849.977C262.09 849.274 262.48 848.619 262.759 848.279C263.288 847.625 264.18 847.067 265.239 846.776C265.63 846.654 266.048 846.582 266.466 846.557C267.107 846.509 267.72 846.557 268.249 846.703C268.695 846.824 269.476 847.139 269.755 847.843C270.2 849.007 268.863 850.462 266.884 851.044M272.068 847.164C271.622 846.024 270.507 845.102 269.002 844.69C267.608 844.302 265.992 844.326 264.431 844.763C262.898 845.199 261.56 846.024 260.724 847.067C259.832 848.182 259.554 849.492 259.999 850.656C260.724 852.548 263.177 853.615 265.88 853.373C266.466 853.324 267.051 853.227 267.636 853.057C271.009 852.087 272.96 849.492 272.068 847.164Z" fill="white"/>
<path d="M280.179 836.395C279.649 837.05 278.757 837.608 277.698 837.923C276.667 838.214 275.552 838.263 274.688 837.996C274.242 837.875 273.462 837.559 273.183 836.856C272.904 836.153 273.322 835.498 273.601 835.158C274.13 834.504 275.022 833.946 276.081 833.63C276.5 833.509 276.918 833.436 277.308 833.412C277.949 833.364 278.562 833.412 279.092 833.558C279.538 833.679 280.318 833.994 280.597 834.698C280.875 835.401 280.457 836.056 280.179 836.395ZM282.91 834.043C282.464 832.903 281.349 831.981 279.844 831.569C278.451 831.181 276.834 831.205 275.301 831.642C273.74 832.078 272.43 832.903 271.594 833.97C270.674 835.086 270.424 836.395 270.87 837.559C271.315 838.699 272.43 839.621 273.935 840.033C274.799 840.276 275.747 840.373 276.723 840.276C277.308 840.227 277.921 840.106 278.506 839.936C280.039 839.5 281.377 838.675 282.213 837.608C283.105 836.492 283.384 835.183 282.938 834.018L282.91 834.043Z" fill="white"/>
<path d="M310.477 869.792C310.226 870.083 309.808 870.35 309.306 870.496C308.386 870.762 307.494 870.544 307.355 870.18C307.271 869.962 307.438 869.72 307.522 869.623C307.773 869.307 308.191 869.065 308.665 868.919C308.86 868.871 309.055 868.822 309.25 868.798C309.612 868.774 309.975 868.798 310.254 868.919C310.393 868.968 310.56 869.065 310.616 869.21C310.699 869.428 310.532 869.671 310.449 869.792M311.396 867.003C310.393 866.567 309.139 866.518 307.94 866.858C306.937 867.149 306.101 867.682 305.543 868.361C304.93 869.137 304.763 870.035 305.069 870.811C305.571 872.121 307.16 872.848 308.944 872.703C309.334 872.678 309.724 872.606 310.086 872.484C311.09 872.193 311.926 871.66 312.483 870.981C313.096 870.205 313.264 869.331 312.957 868.531C312.706 867.876 312.149 867.343 311.396 867.003Z" fill="white"/>
<path d="M320.286 852.184C320.147 851.82 320.704 851.19 321.624 850.923C321.819 850.874 322.014 850.826 322.209 850.802C322.488 850.802 322.795 850.802 323.018 850.874C323.157 850.923 323.464 851.02 323.547 851.238C323.687 851.602 323.129 852.233 322.209 852.5C321.29 852.766 320.398 852.548 320.258 852.184M325.888 850.559C325.582 849.759 324.829 849.128 323.798 848.837C322.878 848.57 321.847 848.595 320.844 848.886C318.614 849.516 317.36 851.262 317.973 852.839C318.475 854.124 320.063 854.852 321.847 854.706C322.237 854.682 322.6 854.609 322.99 854.488C325.192 853.858 326.474 852.111 325.86 850.535" fill="white"/>
<path d="M334.753 833.655C335.004 833.339 335.422 833.097 335.923 832.951C336.118 832.903 336.314 832.854 336.509 832.854C337.178 832.806 337.763 833 337.874 833.291C337.958 833.509 337.791 833.752 337.707 833.849C337.456 834.14 337.038 834.406 336.537 834.552C336.035 834.697 335.533 834.722 335.115 834.6C334.976 834.576 334.669 834.455 334.586 834.237C334.502 834.018 334.669 833.8 334.753 833.655ZM336.174 836.783C336.564 836.759 336.927 836.686 337.317 836.565C338.32 836.274 339.156 835.74 339.714 835.061C340.327 834.285 340.522 833.388 340.216 832.587C339.602 831.011 337.401 830.283 335.199 830.914C334.195 831.205 333.359 831.739 332.802 832.418C332.189 833.194 332.021 834.067 332.3 834.891C332.607 835.692 333.359 836.322 334.39 836.613C334.948 836.783 335.561 836.832 336.202 836.783" fill="white"/>
<path d="M338.542 816.192C338.793 815.901 339.211 815.634 339.713 815.489C339.908 815.44 340.103 815.392 340.298 815.367C340.577 815.367 340.883 815.367 341.106 815.44C341.246 815.464 341.552 815.586 341.636 815.804C341.692 815.949 341.636 816.119 341.552 816.24C341.357 816.604 340.856 816.919 340.298 817.089C339.796 817.235 339.295 817.259 338.877 817.138C338.737 817.114 338.431 816.992 338.347 816.774C338.263 816.556 338.431 816.289 338.514 816.192M336.062 817.429C336.368 818.229 337.121 818.86 338.152 819.151C338.709 819.321 339.323 819.369 339.964 819.321C340.354 819.296 340.716 819.224 341.106 819.102C342.305 818.763 343.28 818.059 343.782 817.186C344.172 816.531 344.228 815.804 343.977 815.149C343.671 814.349 342.918 813.718 341.887 813.427C340.995 813.16 339.936 813.184 338.932 813.476C337.929 813.767 337.093 814.3 336.535 814.979C335.922 815.755 335.755 816.628 336.034 817.429" fill="white"/>
<path d="M334.334 798.487C334.474 798.851 333.916 799.481 332.996 799.748C332.495 799.894 331.993 799.918 331.575 799.797C331.436 799.748 331.129 799.651 331.045 799.433C330.906 799.069 331.463 798.438 332.383 798.172C332.578 798.123 332.773 798.075 332.969 798.075C333.665 798.026 334.223 798.22 334.334 798.511M331.631 796.159C329.429 796.813 328.147 798.535 328.76 800.112C329.066 800.912 329.819 801.543 330.85 801.834C331.408 802.004 332.021 802.052 332.662 802.004C333.052 801.979 333.414 801.907 333.805 801.785C336.006 801.155 337.289 799.408 336.675 797.832C336.062 796.256 333.86 795.528 331.631 796.159Z" fill="white"/>
<path d="M315.882 783.062C316.077 783.013 316.272 782.965 316.467 782.965C316.83 782.941 317.192 782.965 317.471 783.086C317.61 783.135 317.777 783.232 317.805 783.377C317.945 783.741 317.387 784.372 316.467 784.638C315.548 784.905 314.684 784.687 314.516 784.323C314.377 783.959 314.934 783.329 315.854 783.062M312.231 785.002C312.733 786.312 314.321 787.039 316.105 786.87C316.495 786.845 316.858 786.773 317.248 786.651C319.45 785.997 320.732 784.275 320.119 782.698C319.868 782.043 319.31 781.51 318.53 781.17C317.526 780.734 316.272 780.685 315.074 781.025C312.872 781.679 311.59 783.401 312.203 784.978" fill="white"/>
<path d="M289.016 775.398C288.096 775.665 287.204 775.447 287.065 775.083C286.982 774.865 287.149 774.622 287.232 774.525C287.483 774.234 287.901 773.967 288.403 773.822C288.598 773.773 288.793 773.725 288.988 773.701C289.267 773.701 289.574 773.701 289.797 773.773C289.936 773.798 290.242 773.919 290.326 774.137C290.465 774.501 289.908 775.132 288.988 775.398M290.577 771.736C289.657 771.469 288.626 771.494 287.623 771.785C286.619 772.076 285.783 772.609 285.226 773.288C284.612 774.064 284.445 774.938 284.752 775.738C285.253 777.048 286.842 777.775 288.626 777.63C289.016 777.605 289.378 777.533 289.769 777.411C291.971 776.781 293.253 775.035 292.639 773.458C292.333 772.658 291.58 772.027 290.549 771.736" fill="white"/>
<path d="M261.925 771.518C262.12 771.469 262.315 771.421 262.51 771.397C262.789 771.397 263.095 771.397 263.318 771.469C263.457 771.494 263.764 771.615 263.848 771.833C263.987 772.197 263.43 772.828 262.51 773.094C261.59 773.361 260.698 773.143 260.559 772.779C260.419 772.415 260.977 771.785 261.897 771.518M262.175 775.35C262.538 775.326 262.928 775.253 263.318 775.132C265.548 774.477 266.802 772.755 266.189 771.178C265.882 770.378 265.13 769.747 264.098 769.456C263.179 769.19 262.147 769.214 261.144 769.505C258.942 770.135 257.66 771.882 258.273 773.458C258.775 774.768 260.364 775.495 262.147 775.35" fill="white"/>
<path d="M239.737 773.822C239.932 773.774 240.127 773.725 240.322 773.725C240.991 773.677 241.577 773.871 241.688 774.162C241.772 774.38 241.604 774.623 241.521 774.744C241.27 775.035 240.852 775.302 240.35 775.447C239.43 775.714 238.539 775.496 238.399 775.132C238.26 774.768 238.817 774.138 239.737 773.871M236.086 775.763C236.588 777.072 238.176 777.776 239.96 777.63C240.35 777.606 240.74 777.533 241.103 777.412C242.106 777.121 242.942 776.587 243.5 775.908C244.113 775.156 244.28 774.259 243.974 773.458C243.36 771.882 241.158 771.154 238.929 771.785C236.727 772.44 235.445 774.162 236.058 775.763" fill="white"/>
<path d="M220.171 780.128C220.366 780.079 220.561 780.031 220.756 780.031C221.425 779.982 222.01 780.176 222.122 780.467C222.261 780.831 221.704 781.462 220.784 781.728C219.864 781.995 218.972 781.777 218.861 781.413C218.722 781.049 219.279 780.419 220.199 780.152M220.394 783.96C220.784 783.935 221.146 783.863 221.537 783.741C223.766 783.087 225.021 781.365 224.407 779.788C223.794 778.212 221.592 777.484 219.363 778.115C217.133 778.769 215.879 780.491 216.492 782.068C216.994 783.378 218.582 784.105 220.366 783.96" fill="white"/>
<path d="M200.745 791.987C200.996 791.696 201.414 791.429 201.888 791.284C202.083 791.235 202.278 791.187 202.473 791.163C203.142 791.114 203.728 791.308 203.839 791.599C203.923 791.817 203.755 792.06 203.672 792.157C203.421 792.448 203.003 792.715 202.529 792.86C202.027 793.006 201.526 793.03 201.108 792.909C200.968 792.885 200.662 792.763 200.578 792.545C200.494 792.327 200.662 792.084 200.745 791.987ZM200.355 794.946C200.913 795.116 201.526 795.164 202.167 795.116C202.557 795.092 202.919 795.019 203.309 794.898C204.313 794.607 205.149 794.073 205.706 793.394C206.32 792.618 206.487 791.745 206.18 790.944C205.567 789.368 203.365 788.64 201.136 789.271C200.16 789.562 199.296 790.095 198.739 790.775C198.125 791.551 197.958 792.424 198.265 793.224C198.571 794.024 199.324 794.655 200.355 794.946Z" fill="white"/>
<path d="M188.175 800.548C188.425 800.257 188.843 799.991 189.345 799.845C189.54 799.797 189.735 799.748 189.93 799.724C190.209 799.699 190.488 799.724 190.739 799.796C190.878 799.821 191.185 799.942 191.268 800.16C191.352 800.379 191.185 800.597 191.101 800.742C190.85 801.033 190.432 801.3 189.93 801.446C189.011 801.713 188.147 801.494 188.007 801.13C187.924 800.912 188.091 800.645 188.175 800.573M189.568 803.677C189.958 803.653 190.321 803.58 190.711 803.459C191.714 803.168 192.55 802.634 193.108 801.955C193.721 801.179 193.888 800.306 193.582 799.505C193.275 798.705 192.523 798.075 191.491 797.783C190.571 797.517 189.54 797.541 188.537 797.832C187.533 798.123 186.697 798.657 186.14 799.336C185.527 800.112 185.36 801.009 185.666 801.81C186.168 803.119 187.756 803.847 189.54 803.677" fill="white"/>
<path d="M175.075 811.584C174.936 811.22 175.493 810.589 176.413 810.322C176.608 810.274 176.803 810.225 176.998 810.225C177.667 810.177 178.252 810.371 178.364 810.662C178.503 811.026 177.946 811.656 177.026 811.923C176.106 812.19 175.214 811.972 175.075 811.608M177.806 813.936C180.008 813.281 181.29 811.559 180.677 809.983C180.064 808.406 177.862 807.679 175.66 808.309C173.431 808.964 172.176 810.686 172.789 812.263C173.291 813.572 174.88 814.3 176.664 814.13C177.054 814.106 177.444 814.033 177.806 813.912" fill="white"/>
<path d="M164.624 837.535C164.874 837.244 165.292 836.977 165.766 836.832C165.961 836.783 166.156 836.735 166.352 836.71C166.658 836.71 166.937 836.71 167.16 836.783C167.299 836.807 167.606 836.929 167.689 837.147C167.773 837.365 167.606 837.608 167.522 837.705C167.271 838.02 166.853 838.263 166.379 838.408C165.46 838.675 164.568 838.457 164.428 838.093C164.345 837.875 164.512 837.632 164.596 837.535M166.017 840.639C166.407 840.615 166.77 840.542 167.16 840.421C168.163 840.13 168.999 839.597 169.557 838.917C170.17 838.141 170.337 837.268 170.031 836.468C169.724 835.668 168.971 835.037 167.94 834.746C167.02 834.479 165.989 834.503 164.986 834.794C163.982 835.085 163.146 835.619 162.589 836.298C161.976 837.074 161.808 837.947 162.115 838.748C162.617 840.057 164.205 840.785 165.989 840.615" fill="white"/>
<path d="M170.338 864.675C169.418 864.942 168.554 864.723 168.387 864.359C168.304 864.141 168.471 863.899 168.554 863.802C168.805 863.511 169.223 863.244 169.697 863.098C169.892 863.05 170.087 863.001 170.282 862.977C170.589 862.953 170.868 862.977 171.091 863.05C171.23 863.074 171.537 863.195 171.62 863.414C171.76 863.777 171.202 864.408 170.282 864.675M171.899 861.012C171.007 860.746 169.948 860.77 168.945 861.061C167.941 861.352 167.105 861.886 166.548 862.565C165.934 863.341 165.767 864.214 166.074 865.014C166.576 866.324 168.164 867.052 169.948 866.906C170.338 866.882 170.7 866.809 171.091 866.688C173.32 866.033 174.575 864.311 173.961 862.734C173.655 861.934 172.902 861.303 171.871 861.012" fill="white"/>
<path d="M187.256 881.651C187.451 881.288 187.952 880.972 188.51 880.803C188.705 880.754 188.9 880.706 189.095 880.681C189.402 880.657 189.68 880.681 189.903 880.754C190.043 880.778 190.349 880.9 190.433 881.118C190.572 881.482 190.015 882.112 189.095 882.379C188.175 882.646 187.283 882.427 187.144 882.064C187.088 881.918 187.144 881.748 187.2 881.651M184.859 882.743C185.36 884.053 186.949 884.78 188.733 884.635C189.123 884.61 189.485 884.538 189.876 884.416C192.077 883.761 193.359 882.039 192.746 880.463C192.44 879.663 191.687 879.032 190.656 878.741C189.764 878.474 188.705 878.498 187.702 878.79C186.503 879.129 185.528 879.832 185.026 880.705C184.636 881.36 184.58 882.088 184.831 882.743" fill="white"/>
<path d="M206.012 887.764C205.761 888.055 205.343 888.322 204.869 888.467C203.949 888.734 203.058 888.516 202.918 888.152C202.835 887.934 203.002 887.715 203.085 887.594C203.336 887.303 203.754 887.036 204.256 886.891C204.451 886.842 204.646 886.794 204.841 886.769C205.12 886.769 205.427 886.77 205.65 886.842C205.789 886.891 206.096 886.988 206.179 887.206C206.263 887.424 206.096 887.667 206.012 887.788M206.402 884.805C205.482 884.538 204.451 884.562 203.448 884.853C202.444 885.145 201.608 885.678 201.051 886.357C200.438 887.133 200.27 888.006 200.577 888.831C201.079 890.141 202.667 890.844 204.451 890.699C204.841 890.674 205.204 890.602 205.594 890.48C206.597 890.189 207.433 889.656 207.991 888.977C208.604 888.2 208.771 887.327 208.493 886.527C208.186 885.727 207.433 885.096 206.402 884.805Z" fill="white"/>
<path d="M220.312 890.795C220.508 890.746 220.703 890.698 220.898 890.674C221.595 890.625 222.152 890.819 222.263 891.11C222.403 891.474 221.845 892.105 220.926 892.371C220.424 892.517 219.922 892.541 219.504 892.42C219.365 892.371 219.058 892.274 218.975 892.056C218.835 891.692 219.393 891.062 220.312 890.795ZM218.752 894.433C219.309 894.603 219.922 894.651 220.563 894.603C220.953 894.579 221.316 894.506 221.706 894.384C223.936 893.754 225.19 892.008 224.577 890.431C223.964 888.855 221.762 888.127 219.532 888.758C217.33 889.412 216.048 891.134 216.661 892.711C216.968 893.511 217.72 894.118 218.752 894.409" fill="white"/>
<path d="M208.885 908.476C208.969 908.694 208.802 908.937 208.718 909.034C208.467 909.349 208.049 909.592 207.547 909.737C206.99 909.907 206.377 909.883 205.959 909.737C205.819 909.689 205.68 909.592 205.624 909.446C205.485 909.082 206.042 908.452 206.962 908.185C207.157 908.137 207.352 908.088 207.547 908.088C208.216 908.04 208.802 908.234 208.913 908.525M206.154 906.124C203.924 906.778 202.67 908.5 203.283 910.077C203.534 910.732 204.091 911.265 204.872 911.605C205.569 911.896 206.377 912.017 207.185 911.944C207.575 911.92 207.938 911.847 208.328 911.726C209.331 911.435 210.167 910.901 210.725 910.222C211.338 909.446 211.505 908.549 211.199 907.749C210.585 906.172 208.384 905.444 206.154 906.075" fill="white"/>
<path d="M189.821 906.123C188.901 906.39 188.009 906.172 187.898 905.808C187.758 905.444 188.316 904.814 189.236 904.547C189.431 904.498 189.626 904.45 189.821 904.426C190.49 904.377 191.075 904.571 191.187 904.862C191.326 905.226 190.769 905.857 189.849 906.123M188.427 902.51C186.198 903.164 184.943 904.886 185.557 906.463C186.058 907.773 187.647 908.5 189.431 908.355C189.821 908.33 190.183 908.258 190.573 908.136C192.803 907.481 194.057 905.76 193.444 904.183C192.831 902.607 190.629 901.879 188.399 902.51" fill="white"/>
<path d="M174.268 895.791C174.017 896.082 173.599 896.349 173.125 896.495C172.205 896.762 171.313 896.543 171.174 896.179C171.035 895.816 171.592 895.185 172.512 894.918C172.707 894.87 172.902 894.821 173.097 894.797C173.46 894.773 173.822 894.797 174.101 894.918C174.24 894.967 174.379 895.064 174.463 895.209C174.547 895.428 174.379 895.67 174.296 895.791M175.188 893.027C174.184 892.59 172.93 892.541 171.731 892.881C169.53 893.536 168.248 895.258 168.861 896.834C169.362 898.144 170.951 898.872 172.735 898.726C173.125 898.702 173.487 898.629 173.878 898.508C174.881 898.217 175.717 897.683 176.275 897.004C176.888 896.228 177.055 895.355 176.748 894.555C176.498 893.9 175.94 893.366 175.188 893.027Z" fill="white"/>
<path d="M160.778 885.387C160.276 885.532 159.774 885.557 159.356 885.435C159.217 885.387 158.91 885.29 158.827 885.072C158.687 884.708 159.245 884.077 160.165 883.81C160.36 883.762 160.555 883.713 160.75 883.713C161.419 883.665 162.004 883.859 162.116 884.15C162.255 884.514 161.697 885.144 160.778 885.411M164.429 883.422C163.816 881.846 161.614 881.118 159.384 881.749C157.154 882.404 155.9 884.126 156.513 885.702C156.82 886.502 157.572 887.133 158.604 887.424C159.161 887.594 159.802 887.642 160.415 887.594C160.806 887.57 161.168 887.497 161.558 887.376C163.788 886.721 165.042 884.999 164.429 883.422Z" fill="white"/>
<path d="M145.532 862.079C145.281 862.37 144.863 862.637 144.389 862.783C143.469 863.049 142.605 862.831 142.438 862.467C142.355 862.249 142.522 862.006 142.605 861.909C142.856 861.618 143.274 861.352 143.776 861.206C143.971 861.158 144.166 861.109 144.361 861.085C144.668 861.061 144.947 861.085 145.17 861.158C145.309 861.182 145.616 861.303 145.699 861.521C145.783 861.74 145.616 861.982 145.532 862.079ZM145.95 859.12C145.058 858.854 143.999 858.878 142.996 859.169C141.992 859.46 141.156 859.994 140.599 860.673C139.985 861.449 139.818 862.322 140.125 863.122C140.627 864.432 142.215 865.159 143.999 865.014C144.389 864.99 144.752 864.917 145.142 864.796C146.145 864.505 146.981 863.971 147.539 863.292C148.152 862.516 148.319 861.643 148.04 860.842C147.734 860.042 146.981 859.411 145.95 859.12Z" fill="white"/>
<path d="M145.923 832.684C145.672 832.999 145.254 833.242 144.752 833.387C144.25 833.533 143.749 833.557 143.331 833.436C143.191 833.388 142.885 833.29 142.801 833.072C142.717 832.854 142.885 832.611 142.968 832.49C143.219 832.175 143.637 831.932 144.139 831.787C144.334 831.738 144.529 831.69 144.724 831.69C145.393 831.641 145.95 831.835 146.062 832.126C146.146 832.345 145.978 832.587 145.895 832.684M148.403 831.447C147.79 829.871 145.588 829.143 143.386 829.774C142.383 830.065 141.547 830.598 140.989 831.277C140.376 832.054 140.209 832.927 140.515 833.727C140.822 834.527 141.575 835.158 142.606 835.449C143.163 835.619 143.776 835.667 144.417 835.619C144.808 835.595 145.17 835.522 145.56 835.401C146.564 835.11 147.4 834.576 147.957 833.897C148.57 833.121 148.765 832.223 148.459 831.447H148.403Z" fill="white"/>
<path d="M155.901 804.114C155.817 803.895 155.985 803.653 156.068 803.556C156.319 803.265 156.737 802.998 157.239 802.853C157.434 802.804 157.629 802.756 157.824 802.731C158.131 802.707 158.41 802.731 158.632 802.804C158.772 802.853 159.078 802.95 159.162 803.168C159.246 803.386 159.078 803.604 158.995 803.75C158.744 804.041 158.326 804.308 157.824 804.453C156.904 804.72 156.04 804.502 155.901 804.138M161.002 804.963C161.615 804.187 161.782 803.313 161.503 802.489C161.197 801.688 160.444 801.058 159.413 800.767C158.521 800.5 157.462 800.524 156.459 800.815C155.455 801.106 154.619 801.64 154.062 802.319C153.448 803.095 153.281 803.993 153.588 804.793C154.089 806.103 155.678 806.83 157.462 806.66C157.852 806.636 158.214 806.563 158.605 806.442C159.608 806.151 160.444 805.618 161.002 804.938" fill="white"/>
<path d="M178.7 778.6C178.895 778.551 179.09 778.503 179.285 778.479C179.564 778.479 179.87 778.479 180.093 778.551C180.233 778.576 180.539 778.697 180.623 778.915C180.762 779.279 180.205 779.91 179.285 780.176C178.365 780.443 177.473 780.225 177.334 779.861C177.195 779.497 177.752 778.867 178.672 778.6M178.951 782.432C179.341 782.408 179.703 782.335 180.093 782.214C182.323 781.559 183.577 779.837 182.964 778.26C182.657 777.46 181.905 776.829 180.874 776.538C179.954 776.272 178.923 776.296 177.919 776.587C175.69 777.217 174.435 778.964 175.049 780.54C175.55 781.85 177.139 782.577 178.923 782.408" fill="white"/>
<path d="M203.978 764C204.229 763.684 204.647 763.442 205.149 763.296C205.344 763.248 205.539 763.199 205.734 763.175C206.013 763.151 206.291 763.175 206.542 763.248C206.682 763.296 206.988 763.393 207.072 763.611C207.155 763.83 206.988 764.048 206.905 764.194C206.654 764.485 206.236 764.751 205.734 764.897C204.814 765.164 203.95 764.945 203.811 764.582C203.727 764.363 203.894 764.097 203.978 764.024M205.344 767.128C205.734 767.104 206.096 767.031 206.486 766.91C207.49 766.619 208.326 766.085 208.883 765.406C209.497 764.63 209.664 763.757 209.357 762.957C209.051 762.156 208.298 761.526 207.267 761.235C206.347 760.968 205.316 760.992 204.313 761.283C203.309 761.574 202.473 762.108 201.916 762.787C201.302 763.563 201.135 764.46 201.442 765.261C201.943 766.57 203.532 767.298 205.316 767.128" fill="white"/>
<path d="M228.644 750.005C228.895 749.714 229.313 749.447 229.815 749.302C230.01 749.253 230.205 749.205 230.4 749.205C231.069 749.156 231.627 749.35 231.766 749.641C231.85 749.86 231.682 750.102 231.599 750.199C231.348 750.49 230.93 750.757 230.428 750.903C229.927 751.048 229.425 751.072 229.007 750.951C228.867 750.903 228.561 750.806 228.477 750.587C228.394 750.369 228.561 750.127 228.644 750.005ZM228.254 752.964C228.812 753.134 229.425 753.182 230.066 753.134C230.456 753.11 230.818 753.037 231.209 752.916C232.212 752.625 233.048 752.091 233.606 751.412C234.219 750.636 234.386 749.738 234.107 748.962C233.494 747.386 231.292 746.658 229.063 747.289C228.059 747.58 227.223 748.114 226.666 748.793C226.052 749.569 225.885 750.442 226.192 751.242C226.498 752.043 227.251 752.673 228.282 752.964" fill="white"/>
<path d="M259.582 748.428C259.833 748.137 260.251 747.87 260.752 747.725C260.947 747.676 261.143 747.628 261.338 747.603C262.007 747.555 262.592 747.749 262.703 748.04C262.843 748.404 262.285 749.034 261.366 749.301C260.864 749.447 260.362 749.471 259.944 749.35C259.805 749.301 259.498 749.204 259.415 748.986C259.331 748.768 259.498 748.525 259.582 748.428ZM259.164 751.363C259.721 751.532 260.334 751.581 260.975 751.532C261.366 751.508 261.728 751.435 262.118 751.314C264.32 750.684 265.602 748.937 264.989 747.361C264.376 745.784 262.174 745.057 259.944 745.687C258.941 745.978 258.105 746.512 257.547 747.191C256.934 747.967 256.767 748.84 257.073 749.641C257.38 750.441 258.132 751.047 259.164 751.338" fill="white"/>
<path d="M285.643 751.411C285.838 751.363 286.033 751.314 286.228 751.29C286.897 751.242 287.482 751.436 287.594 751.727C287.733 752.09 287.175 752.721 286.256 752.988C285.336 753.255 284.444 753.036 284.305 752.672C284.165 752.309 284.723 751.678 285.643 751.411ZM285.866 755.243C286.228 755.219 286.618 755.146 287.008 755.025C289.238 754.37 290.492 752.648 289.879 751.072C289.266 749.495 287.064 748.768 284.834 749.398C282.632 750.029 281.35 751.775 281.963 753.352C282.465 754.661 284.054 755.389 285.838 755.243" fill="white"/>
<path d="M306.018 756.796C306.213 756.747 306.408 756.699 306.603 756.699C307.272 756.65 307.857 756.844 307.969 757.135C308.025 757.281 307.969 757.45 307.885 757.547C307.69 757.911 307.188 758.227 306.631 758.396C306.129 758.542 305.628 758.566 305.209 758.445C305.07 758.396 304.764 758.299 304.68 758.081C304.541 757.717 305.098 757.062 306.018 756.796ZM304.457 760.458C305.014 760.628 305.628 760.676 306.269 760.628C306.659 760.603 307.021 760.531 307.411 760.409C308.61 760.07 309.585 759.366 310.087 758.493C310.477 757.838 310.533 757.111 310.282 756.456C309.669 754.88 307.467 754.152 305.237 754.783C303.035 755.437 301.753 757.159 302.367 758.736C302.673 759.536 303.426 760.167 304.457 760.458Z" fill="white"/>
<path d="M321.456 879.469C320.537 879.735 319.645 879.517 319.505 879.153C319.422 878.935 319.589 878.692 319.673 878.595C319.923 878.304 320.341 878.038 320.843 877.892C321.038 877.844 321.233 877.795 321.428 877.795C321.791 877.771 322.153 877.795 322.432 877.916C322.571 877.965 322.711 878.062 322.766 878.207C322.906 878.571 322.348 879.202 321.428 879.469M323.519 876C322.515 875.564 321.261 875.515 320.063 875.855C319.059 876.146 318.223 876.679 317.666 877.359C317.053 878.135 316.885 879.032 317.164 879.808C317.666 881.118 319.254 881.845 321.038 881.7C321.428 881.676 321.791 881.603 322.181 881.481C324.411 880.827 325.665 879.105 325.052 877.528C324.801 876.873 324.243 876.34 323.463 876" fill="white"/>
<path d="M338.711 861.109C338.962 860.818 339.38 860.551 339.882 860.406C340.077 860.357 340.272 860.309 340.467 860.285C340.774 860.285 341.052 860.285 341.275 860.358C341.415 860.382 341.721 860.503 341.805 860.721C341.944 861.085 341.387 861.716 340.467 861.982C339.547 862.249 338.655 862.031 338.516 861.667C338.432 861.449 338.6 861.206 338.683 861.109M340.105 864.238C340.495 864.214 340.857 864.141 341.247 864.02C343.449 863.365 344.731 861.643 344.118 860.067C343.812 859.266 343.059 858.636 342.028 858.344C341.136 858.078 340.077 858.102 339.074 858.393C338.07 858.684 337.234 859.218 336.677 859.897C336.063 860.673 335.896 861.546 336.203 862.346C336.704 863.656 338.293 864.384 340.077 864.214" fill="white"/>
<path d="M353.788 838.82C352.868 839.087 351.976 838.869 351.865 838.505C351.725 838.141 352.283 837.511 353.203 837.244C353.398 837.195 353.593 837.147 353.788 837.123C354.485 837.074 355.042 837.268 355.154 837.559C355.293 837.923 354.736 838.554 353.816 838.82M352.422 835.207C350.22 835.862 348.938 837.584 349.551 839.16C350.053 840.47 351.642 841.197 353.426 841.027C353.816 841.003 354.206 840.93 354.568 840.809C356.77 840.154 358.052 838.432 357.439 836.856C356.826 835.279 354.624 834.552 352.394 835.182" fill="white"/>
<path d="M357.133 813.427C356.631 813.573 356.13 813.597 355.711 813.476C355.572 813.427 355.266 813.33 355.182 813.112C355.043 812.748 355.6 812.117 356.52 811.851C356.715 811.802 356.91 811.754 357.105 811.729C357.774 811.681 358.359 811.875 358.471 812.166C358.61 812.53 358.053 813.16 357.133 813.427ZM360.784 811.487C360.171 809.91 357.969 809.183 355.767 809.813C353.537 810.468 352.283 812.19 352.896 813.767C353.203 814.567 353.956 815.198 354.987 815.464C355.544 815.634 356.157 815.683 356.798 815.634C357.189 815.61 357.551 815.537 357.941 815.416C360.143 814.785 361.425 813.039 360.812 811.463" fill="white"/>
<path d="M348.801 787.574C348.996 787.525 349.191 787.477 349.386 787.477C350.083 787.428 350.64 787.622 350.752 787.913C350.891 788.277 350.334 788.908 349.414 789.174C348.494 789.441 347.602 789.223 347.463 788.859C347.324 788.495 347.881 787.865 348.801 787.598M349.024 791.381C349.414 791.357 349.804 791.284 350.166 791.163C352.368 790.508 353.65 788.786 353.037 787.21C352.424 785.633 350.222 784.906 347.992 785.536C345.791 786.191 344.509 787.913 345.122 789.49C345.623 790.799 347.212 791.527 348.996 791.381" fill="white"/>
<path d="M327.952 767.71C328.147 767.662 328.343 767.613 328.538 767.589C329.234 767.54 329.792 767.734 329.903 768.025C329.959 768.171 329.903 768.341 329.82 768.438C329.625 768.802 329.123 769.117 328.565 769.287C328.064 769.432 327.562 769.456 327.144 769.335C327.005 769.287 326.698 769.19 326.614 768.971C326.475 768.608 327.033 767.953 327.952 767.71ZM326.392 771.372C326.949 771.542 327.562 771.591 328.203 771.542C328.593 771.518 328.956 771.445 329.346 771.324C330.544 770.984 331.52 770.281 332.022 769.408C332.412 768.753 332.468 768.025 332.217 767.371C331.603 765.794 329.402 765.067 327.172 765.697C324.97 766.352 323.688 768.074 324.301 769.65C324.608 770.451 325.36 771.081 326.392 771.372Z" fill="white"/>
</g>
</svg>
